<svg class="icon" style="width: 1em;height: 1em;vertical-align: middle;fill: currentColor;overflow: hidden;" viewBox="0 0 1024 1024" version="1.1" xmlns="http://www.w3.org/2000/svg" p-id="2036"><path d="M707.87072 484.6592c37.49888-44.544 60.12928-102.01088 60.12928-164.6592 0-141.16864-114.85184-256-256-256l-320 0 0 896 384 0c141.14816 0 256-114.85184 256-256 0-92.95872-49.80736-174.4896-124.12928-219.3408zM384 192l101.49888 0c55.97184 0 101.49888 57.42592 101.49888 128s-45.52704 128-101.49888 128l-101.49888 0 0-256zM543.00672 832l-159.00672 0 0-256 159.00672 0c58.44992 0 106.00448 57.42592 106.00448 128s-47.55456 128-106.00448 128z" fill="#ee9827" p-id="2037"></path></svg>