<svg class="icon" style="width: 1em;height: 1em;vertical-align: middle;fill: currentColor;overflow: hidden;" viewBox="0 0 1024 1024" version="1.1" xmlns="http://www.w3.org/2000/svg" p-id="2675"><path d="M909.24032 697.55392H114.75968c-52.64896 0-95.33952 42.69056-95.33952 95.33952v79.44704C19.42016 924.98944 62.1056 967.68 114.75968 967.68h794.48064c52.64896 0 95.33952-42.69056 95.33952-95.33952v-79.44704c0-52.64896-42.69056-95.33952-95.33952-95.33952z" fill="" p-id="2676"></path><path d="M925.12768 46.08H98.87232C54.98368 46.08 19.42016 81.64352 19.42016 125.52704V872.39168c0 43.88352 35.56352 79.45216 79.45216 79.45216h826.2656c43.88352 0 79.45216-35.56352 79.45216-79.45216V125.52704C1004.57984 81.64352 969.01632 46.08 925.12768 46.08z m-691.2 206.5664c-30.72 0-55.61344-24.90368-55.61344-55.61344 0-30.72512 24.88832-55.61344 55.61344-55.61344 30.70976 0 55.61344 24.88832 55.61344 55.61344 0.00512 30.70464-24.89856 55.61344-55.61344 55.61344z m556.14464 0c-30.72512 0-55.61344-24.90368-55.61344-55.61344 0-30.72512 24.88832-55.61344 55.61344-55.61344 30.70976 0 55.61344 24.88832 55.61344 55.61344 0 30.70464-24.90368 55.61344-55.61344 55.61344z" fill="#fff" p-id="2677"></path><path d="M98.87232 332.09344V808.78592c0 35.0976 28.45696 63.55456 63.55968 63.55456h553.87136l208.82944-208.82944v-331.4176H98.87232z" fill="#E5E5E5" p-id="2678"></path><path d="M557.40416 872.34048h161.16224v-161.16224z" fill="" p-id="2679"></path><path d="M770.20672 665.77408c-28.5184 0-51.64032 23.12192-51.64032 51.64544v154.92096h6.72256l199.84384-199.84384v-6.72256h-154.92608z" fill="#FFFFFF" p-id="2680"></path><path d="M402.23232 525.83936c-11.97568 9.94816-23.08608 16.7168-33.30048 20.28544v37.888c19.41504-6.82496 36.28032-17.3824 50.5856-31.65696v157.3888h39.14752V490.98752h-31.76448c-4.46464 13.2864-12.67712 24.89344-24.66816 34.85184z m234.80832 58.33216c-12.07296-13.47072-26.79808-20.21888-44.16512-20.21888-9.10848 0-18.02752 2.3296-26.76736 6.98368l6.144-36.99712h73.84576v-39.08608H542.5664l-20.08064 113.38752 31.77984 4.89984c8.91904-10.59328 18.99008-15.89248 30.23872-15.89248 9.02144 0 16.32256 3.33824 21.94432 10.02496 5.61664 6.69184 8.43776 16.7168 8.43776 30.1056 0 14.2592-2.8416 24.9344-8.50432 32.01024-5.6576 7.09632-12.60032 10.62912-20.7616 10.62912-7.15264 0-13.48608-2.74432-18.96448-8.23808-5.47328-5.504-8.76544-12.9536-9.8816-22.3744l-39.02976 4.31616c2.3296 18.23232 9.43616 32.7424 21.3248 43.54048 11.88352 10.79808 27.25888 16.19968 46.1312 16.19968 23.58272 0 42.0352-9.60512 55.3216-28.83072 9.75872-14.07488 14.62784-30.06976 14.62784-47.99488 0.01024-21.504-6.02624-38.99392-18.10944-52.46464z" fill="#4A4943" p-id="2681"></path></svg>