<svg class="icon" style="width: 1em;height: 1em;vertical-align: middle;fill: #379B41;overflow: hidden;" viewBox="0 0 1024 1024" version="1.1" xmlns="http://www.w3.org/2000/svg" p-id="7537"><path d="M954.843429 323.437714c0 14.299429-5.705143 28.562286-16.018286 38.838857L447.378286 853.723429c-10.276571 10.276571-24.576 16.018286-38.838857 16.018285s-28.562286-5.705143-38.838858-16.018285l-284.562285-284.562286c-10.276571-10.276571-16.018286-24.576-16.018286-38.838857s5.705143-28.562286 16.018286-38.838857l77.714285-77.714286c10.276571-10.276571 24.576-16.018286 38.838858-16.018286s28.562286 5.705143 38.838857 16.018286l168.009143 168.557714 374.857142-375.442286c10.276571-10.276571 24.576-16.018286 38.838858-16.018285s28.562286 5.705143 38.838857 16.018285l77.714285 77.714286c10.276571 10.276571 16.018286 24.576 16.018286 38.838857z" fill="" p-id="7538"></path></svg>