<svg class="icon" style="width: 1em;height: 1em;vertical-align: middle;fill: #FE4B48;overflow: hidden;" viewBox="0 0 1024 1024" version="1.1" xmlns="http://www.w3.org/2000/svg" p-id="5174"><path d="M204.8 122.88h614.4a81.92 81.92 0 0 1 81.92 81.92v614.4a81.92 81.92 0 0 1-81.92 81.92H204.8a81.92 81.92 0 0 1-81.92-81.92V204.8a81.92 81.92 0 0 1 81.92-81.92z m519.9872 601.9072c15.38048-15.42144 16.73216-39.936 3.11296-56.9344l-97.15712-121.2416a55.33696 55.33696 0 0 1 0-69.2224l97.15712-121.2416a42.72128 42.72128 0 0 0-60.04736-60.04736l-121.2416 97.15712a55.33696 55.33696 0 0 1-69.2224 0l-121.2416-97.15712a42.72128 42.72128 0 0 0-60.04736 60.04736l97.15712 121.2416a55.33696 55.33696 0 0 1 0 69.2224l-97.15712 121.2416a42.72128 42.72128 0 0 0 60.04736 60.04736l121.2416-97.15712a55.33696 55.33696 0 0 1 69.2224 0l121.2416 97.15712c16.9984 13.6192 41.51296 12.26752 56.9344-3.13344z" p-id="5175"></path></svg>