<svg class="icon" style="width: 1em;height: 1em;vertical-align: middle;fill: currentColor;overflow: hidden;" viewBox="0 0 1024 1024" version="1.1" xmlns="http://www.w3.org/2000/svg" p-id="3773"><path d="M928.13 225.13v622.8a83.19 83.19 0 0 1-83.2 83.2h-622.8a126 126 0 0 1-126-126v-580a125.93 125.93 0 0 1 126-126h580a126 126 0 0 1 126 126z" fill="#00DEBF" p-id="3774"></path><path d="M489.2 370.4H359.63a15.44 15.44 0 1 0 0 30.88H489.2a15.44 15.44 0 0 0 0-30.88zM489.2 568.68H359.63a15.44 15.44 0 1 0 0 30.88H489.2a15.44 15.44 0 1 0 0-30.88zM489.2 502.59H359.63a15.44 15.44 0 1 0 0 30.88H489.2a15.44 15.44 0 0 0 0-30.88zM489.2 436.49H359.63a15.44 15.44 0 1 0 0 30.88H489.2a15.44 15.44 0 0 0 0-30.88z" fill="#FFFFFF" p-id="3775"></path><path d="M681.88 514.79a117.87 117.87 0 0 0-20.88 1.86V406.24a33.13 33.13 0 0 0-33.09-33.09h-70.1a33 33 0 0 0-5.66 0.49v-45.53c0-26.8-20.92-48.6-46.64-48.6H345c-25.71 0-46.64 21.8-46.64 48.6v337.61a15.46 15.46 0 0 0 1.13 5.78h-49.6a15.44 15.44 0 1 0 0 30.88H587a117.82 117.82 0 1 0 94.93-187.59zM555.6 406.24a2.26 2.26 0 0 1 2.21-2.21h70.09a2.26 2.26 0 0 1 2.2 2.21v120.55a117.89 117.89 0 0 0-59.8 143.79h-12.49a2.26 2.26 0 0 1-2.21-2.21zM329.29 665.72V328.11c0-9.6 7.21-17.71 15.75-17.71h160.47c8.54 0 15.76 8.11 15.76 17.71v337.61a19.39 19.39 0 0 1-0.9 5.78H328.16a15.46 15.46 0 0 0 1.13-5.78z m352.59 53.87a87 87 0 0 1-71.73-37.84 15.4 15.4 0 0 0-4.37-7.07 86.95 86.95 0 1 1 76.1 44.91z" fill="#FFFFFF" p-id="3776"></path><path d="M717.42 618.84H670l8.7-11.6a12.53 12.53 0 0 0-20-15l-23.73 31.65a12.45 12.45 0 0 0-2.49 7.8v0.29a12.41 12.41 0 0 0 2.49 7.8l23.73 31.65a12.53 12.53 0 0 0 20-15l-9.35-12.47h48.12a12.53 12.53 0 0 0 0-25z" fill="#FFFFFF" p-id="3777"></path></svg>