<svg class="icon" style="width: 1em;height: 1em;vertical-align: middle;fill: currentColor;overflow: hidden;" viewBox="0 0 1024 1024" version="1.1" xmlns="http://www.w3.org/2000/svg" p-id="20218"><path d="M780.10112 332.86016c0 38.5152 31.2 69.75488 69.75488 69.75488 38.47552 0 69.7152-31.23968 69.7152-69.75488 0-38.50496-31.23968-69.74464-69.7152-69.74464C811.30112 263.11552 780.10112 294.3552 780.10112 332.86016L780.10112 332.86016zM780.10112 332.86016" fill="#FD6360" p-id="20219"></path><path d="M908.91136 438.94016c-12.24448-4.864-59.05536-7.6992-59.05536-7.6992s-46.88512 2.8352-59.1552 7.6992c-72.84992 28.76032-61.73952 128.72576-61.73952 128.72576l5.28512 226.34496 231.13984 0 5.3056-226.34496C970.69184 567.66592 981.80096 467.70048 908.91136 438.94016L908.91136 438.94016zM908.91136 438.94016" fill="#FD6360" p-id="20220"></path><path d="M599.43168 371.1808c38.47936 0 69.7152-31.23968 69.7152-69.75488 0-38.50496-31.24096-69.74592-69.7152-69.74592-38.55488 0-69.75488 31.24096-69.75488 69.74592C529.6768 339.94112 560.8768 371.1808 599.43168 371.1808L599.43168 371.1808zM599.43168 371.1808" fill="#FD6360" p-id="20221"></path><path d="M658.49088 407.5008c-12.2496-4.86016-59.0592-7.69536-59.0592-7.69536s-46.88512 2.8352-59.15008 7.69536c-72.84992 28.76416-61.74592 128.72448-61.74592 128.72448l5.28512 257.7856 231.13984 0 5.31072-257.7856C720.26624 536.22528 731.37664 436.26496 658.49088 407.5008L658.49088 407.5008zM547.70176 697.96096l-28.19584-44.30976 21.21088-213.12 13.94944 0 20.41472 218.05952L547.70176 697.96096 547.70176 697.96096zM547.70176 697.96096" fill="#FD6360" p-id="20222"></path><path d="M280.26624 316.096c0 38.5152 31.20512 69.75488 69.75488 69.75488 38.48064 0 69.72032-31.23968 69.72032-69.75488 0-38.50496-31.23968-69.74592-69.72032-69.74592C311.47136 246.35008 280.26624 277.59104 280.26624 316.096L280.26624 316.096zM280.26624 316.096" fill="#FD6360" p-id="20223"></path><path d="M409.0816 422.176c-12.25088-4.86528-59.06048-7.70048-59.06048-7.70048s-46.88 2.8352-59.15008 7.70048c-4.55424 1.79456-8.77952 3.86944-12.70016 6.18496 49.856 17.1648 48.81024 108.85504 48.81024 108.85504l-5.24032 257.84448 143.81568 0 5.30432-244.16512C470.8608 550.90048 481.96608 450.93504 409.0816 422.176L409.0816 422.176zM409.0816 422.176" fill="#FD6360" p-id="20224"></path><path d="M104.22656 333.91104c0 38.51392 31.20512 69.75488 69.75488 69.75488 38.47936 0 69.7152-31.24096 69.7152-69.75488 0-38.50496-31.24096-69.74592-69.7152-69.74592C135.43168 264.16512 104.22656 295.40608 104.22656 333.91104L104.22656 333.91104zM104.22656 333.91104" fill="#FD6360" p-id="20225"></path><path d="M233.04064 439.98592c-12.2496-4.86016-59.0592-7.70048-59.0592-7.70048s-46.88512 2.84032-59.15008 7.70048c-72.84992 28.76416-61.74464 128.72448-61.74464 128.72448l5.28896 226.35008 231.14112 0 5.30432-226.35008C294.82112 568.7104 305.9264 468.75008 233.04064 439.98592L233.04064 439.98592zM233.04064 439.98592" fill="#FE4B48" p-id="20226"></path></svg>