<svg class="icon" style="width: 1em;height: 1em;vertical-align: middle;fill: currentColor;overflow: hidden;" viewBox="0 0 1024 1024" version="1.1" xmlns="http://www.w3.org/2000/svg" p-id="6160"><path d="M196.56625302 99.55897254h652.49430713a129.20521279 129.20521279 0 0 1 130.47504577 130.51471752v548.13016a129.20521279 129.20521279 0 0 1-130.47504577 130.47504438h-652.49430713a129.24491782 129.24491782 0 0 1-130.51474978-130.47504438v-548.13016a129.32426246 129.32426246 0 0 1 130.51474978-130.51471752z m5.23804831 261.02946732a76.90410681 76.90410681 0 0 0-78.29298766 78.29295482v321.06864662c0 44.32500177 33.92828159 78.29295499 78.29298766 78.29295463h626.42311495c44.36470614 0 78.33265949-33.92828159 78.33262626-78.29295463v-321.06864662c0-44.36470614-33.92828159-78.29295499-78.33262626-78.29295482h-626.42311495z" fill="#516AF0" p-id="6161"></path><path d="M222.67711817 438.88139468h104.40385192c15.67447302 0 26.11089739 10.43642448 26.11089775 26.11089772s-10.43642448 26.07119318-26.11089775 26.07119265h-104.40385192c-15.67447302 0-26.11089739-10.43642448-26.11086515-26.07119265 0-15.67447302 10.43642448-26.11089739 26.11086515-26.11089772zM222.67711817 569.3961448h104.40385192c15.67447302 0 26.11089739 10.43642448 26.11089775 26.07119308 0 15.67447302-10.43642448 26.11089739-26.11089775 26.11089731h-104.40385192c-15.67447302 0-26.11089739-10.47609647-26.11086515-26.11089731 0-15.67447302 10.43642448-26.07119318 26.11086515-26.07119308zM222.67711817 699.8711898h104.40385192c15.67447302 0 26.11089739 10.47609647 26.11089775 26.11089755 0 15.67447302-10.43642448 26.11089739-26.11089775 26.11086513h-104.40385192c-15.67447302 0-26.11089739-10.47609647-26.11086515-26.11086513 0-15.67447302 10.43642448-26.11089739 26.11086515-26.11089755z" fill="#516AF0" p-id="6162"></path><path d="M222.67711817 699.8711898h104.40385192c15.67447302 0 26.11089739 10.47609647 26.11089775 26.11089755 0 15.67447302-10.43642448 26.11089739-26.11089775 26.11086513h-104.40385192c-15.67447302 0-26.11089739-10.47609647-26.11086515-26.11086513 0-15.67447302 10.43642448-26.11089739 26.11086515-26.11089755zM457.5957199 438.88139468h104.40385296c15.67447302 0 26.07119318 10.43642448 26.07119277 26.11089772s-10.43642448 26.07119318-26.07119277 26.07119265h-104.40385296c-15.67447302 0-26.11089739-10.43642448-26.11089719-26.07119265 0-15.67447302 10.43642448-26.11089739 26.11089719-26.11089772zM457.5957199 569.3961448h104.40385296c15.67447302 0 26.07119318 10.43642448 26.07119277 26.07119308 0 15.67447302-10.43642448 26.11089739-26.07119277 26.11089731h-104.40385296c-15.67447302 0-26.11089739-10.47609647-26.11089719-26.11089731 0-15.67447302 10.43642448-26.07119318 26.11089719-26.07119308zM457.5957199 699.8711898h104.40385296c15.67447302 0 26.07119318 10.47609647 26.07119277 26.11089755 0 15.67447302-10.43642448 26.11089739-26.07119277 26.11086513h-104.40385296c-15.67447302 0-26.11089739-10.47609647-26.11089719-26.11086513 0-15.67447302 10.43642448-26.11089739 26.11089719-26.11089755z" fill="#516AF0" p-id="6163"></path><path d="M457.5957199 699.8711898h104.40385296c15.67447302 0 26.07119318 10.47609647 26.07119277 26.11089755 0 15.67447302-10.43642448 26.11089739-26.07119277 26.11086513h-104.40385296c-15.67447302 0-26.11089739-10.47609647-26.11089719-26.11086513 0-15.67447302 10.43642448-26.11089739 26.11089719-26.11089755zM718.58551566 438.88139468h104.40385219c15.67447302 0 26.11089739 10.43642448 26.11086493 26.11089772s-10.47609647 26.07119318-26.11086493 26.07119265h-104.40385219c-15.67447302 0-26.11089739-10.43642448-26.11089774-26.07119265 0-15.67447302 10.43642448-26.11089739 26.11089774-26.11089772zM718.58551566 569.3961448h104.40385219c15.67447302 0 26.11089739 10.43642448 26.11086493 26.07119308 0 15.67447302-10.47609647 26.11089739-26.11086493 26.11089731h-104.40385219c-15.67447302 0-26.11089739-10.47609647-26.11089774-26.11089731 0-15.67447302 10.43642448-26.07119318 26.11089774-26.07119308zM718.58551566 699.8711898h104.40385219c15.67447302 0 26.11089739 10.47609647 26.11086493 26.11089755 0 15.67447302-10.47609647 26.11089739-26.11086493 26.11086513h-104.40385219c-15.67447302 0-26.11089739-10.47609647-26.11089774-26.11086513 0-15.67447302 10.43642448-26.11089739 26.11089774-26.11089755z" fill="#516AF0" p-id="6164"></path><path d="M718.58551566 699.8711898h104.40385219c15.67447302 0 26.11089739 10.47609647 26.11086493 26.11089755 0 15.67447302-10.47609647 26.11089739-26.11086493 26.11086513h-104.40385219c-15.67447302 0-26.11089739-10.47609647-26.11089774-26.11086513 0-15.67447302 10.43642448-26.11089739 26.11089774-26.11089755z" fill="#516AF0" p-id="6165"></path></svg>