<svg class="icon" style="width: 1em;height: 1em;vertical-align: middle;fill: currentColor;overflow: hidden;" viewBox="0 0 1024 1024" version="1.1" xmlns="http://www.w3.org/2000/svg" p-id="5198"><path d="M896 64 128 64C64 64 0 124.032 0 188.032L0 832c0 64 64 128 128 128l768 0c64 0 128-64 128-128L1024 188.032C1024 124.032 960 64 896 64zM296 227.968c70.72 0 128 57.28 128 128 0 70.72-57.28 128-128 128s-128-57.28-128-128C168 285.312 225.28 227.968 296 227.968zM971.008 615.744l-126.976-126.976L580.8 752l155.328 155.328-73.536 0-258.56-258.56-258.56 258.56c0 0-11.392 0.64-28.416-5.312-13.952-4.928-23.872-15.872-23.872-15.872l310.912-310.912L544 715.2l299.968-300.032 126.976 126.976L970.944 615.744z" fill="#ee9827" p-id="5199"></path></svg>