<?xml version="1.0" encoding="UTF-8" standalone="no" ?>
<!DOCTYPE svg PUBLIC "-//W3C//DTD SVG 1.1//EN" "http://www.w3.org/Graphics/SVG/1.1/DTD/svg11.dtd">
<svg xmlns="http://www.w3.org/2000/svg" xmlns:xlink="http://www.w3.org/1999/xlink" version="1.1" width="43.2598112956" height="60.6418451532" viewBox="140.2237856542 58.1556437289 43.2598112956 60.6418451532" xml:space="preserve">
<desc>Created with Fabric.js 5.3.0</desc>
<defs>
</defs>
<g transform="matrix(1 0 0 1 161.853691302 88.4765663055)" id="suty7WXndoCsgPiN609Pj"  >
<g style=""   >
		<g transform="matrix(0.0883991912 0 0 0.0883991912 -0.036139534 -17.989295389)" id="eL5eLWpdvUCNGej2s9D_T"  >
<path style="stroke: none; stroke-width: 1; stroke-dasharray: none; stroke-linecap: butt; stroke-dashoffset: 0; stroke-linejoin: miter; stroke-miterlimit: 4; fill: rgb(238,152,39); fill-rule: evenodd; opacity: 1;"  transform=" translate(-246.049371892, -138.4993214325)" d="M 244.5 -0.5 C 245.833 -0.5 247.167 -0.5 248.5 -0.5 C 257.022 6.02635 265.522 12.693 274 19.5 C 278.519 28.5569 282.352 37.8902 285.5 47.5 C 286.481 41.0387 285.815 34.7054 283.5 28.5 C 284.002 27.479 284.668 27.3123 285.5 28 C 301.433 42.9288 316.266 58.762100000000004 330 75.5 C 333.555 85.9559 333.221 96.2893 329 106.5 C 325 114.5 321 122.5 317 130.5 C 315.285 134.86 314.118 139.36 313.5 144 C 314.919 157.762 319.586 170.262 327.5 181.5 C 328.002 182.521 328.668 182.688 329.5 182 C 322.014 165.935 320.847 149.435 326 132.5 C 330.608 122.952 334.941 113.285 339 103.5 C 340.222 97.7067 340.722 92.03999999999999 340.5 86.5 C 347.891 94.2705 355.058 102.271 362 110.5 C 363.439 116.125 364.772 121.792 366 127.5 C 370.802 135.437 374.802 143.77 378 152.5 C 379.393 157.095 379.726 161.761 379 166.5 C 374.586 171.656 370.919 177.323 368 183.5 C 366.421 187.12 366.255 190.786 367.5 194.5 C 373.819 188.682 379.986 182.682 386 176.5 C 387.947 172.716 389.28 168.716 390 164.5 C 395.163 176.661 396.829 189.327 395 202.5 C 393.771 207.529 391.771 212.196 389 216.5 C 382.5 225.667 376 234.833 369.5 244 C 372.257 244.584 374.923 244.25 377.5 243 C 390.659 235.827 399.493 224.994 404 210.5 C 405.515 238.50900000000001 393.015 259.009 366.5 272 C 352.481 277.922 338.147 278.922 323.5 275 C 307.087 269.391 293.92 259.557 284 245.5 C 272.476 228.275 264.642 209.441 260.5 189 C 260.777 187.108 261.777 185.775 263.5 185 C 275.535 182.123 285.702 185.289 294 194.5 C 298.712 201.242 299.545 208.409 296.5 216 C 295.668 216.688 295.002 216.521 294.5 215.5 C 292.702 211.605 291.202 207.605 290 203.5 C 284.384 197.029 278.717 197.029 273 203.5 C 270.585 217.532 275.085 229.032 286.5 238 C 296.262 242.195 304.428 240.029 311 231.5 C 320.196 217.607 320.862 203.274 313 188.5 C 299.962 168.065 281.462 159.732 257.5 163.5 C 259.131 149.856 260.631 136.19 262 122.5 C 264.42 109.49 270.586 98.6563 280.5 90 C 287.723 84.1776 292.557 85.6776 295 94.5 C 296.802 105.429 293.635 114.596 285.5 122 C 281.803 123.154 279.803 121.821 279.5 118 C 279.542 116.033 280.042 114.199 281 112.5 C 285.506 111.021 286.339 108.521 283.5 105 C 277.212 104.266 273.378 107.099 272 113.5 C 270.868 130.047 278.034 135.547 293.5 130 C 307.516 117.777 310.683 103.277 303 86.5 C 295.123 76.6643 286.29 75.8309 276.5 84 C 262.576 97.1565 255.242 113.156 254.5 132 C 252.857 143.4 251.69 154.9 251 166.5 C 246.833 170.667 243.333 170.167 240.5 165 C 240.562 150.475 239.395 135.975 237 121.5 C 234.376 107.75 228.209 95.91669999999999 218.5 86 C 203.664 73.9491 192.831 76.7824 186 94.5 C 183.395 111.117 189.229 123.617 203.5 132 C 214.977 134.026 220.977 129.193 221.5 117.5 C 221.047 113.393 219.547 109.726 217 106.5 C 213.102 103.416 209.935 103.916 207.5 108 C 209.212 110.272 211.046 112.439 213 114.5 C 213.144 123.48 209.811 124.814 203 118.5 C 196.89 108.904 196.057 98.904 200.5 88.5 C 203.782 86.2767 207.115 86.4434 210.5 89 C 220.644 96.7778 227.144 106.944 230 119.5 C 231.7 134.47899999999998 233.534 149.14600000000002 235.5 163.5 C 209.527 159.634 190.36 169.301 178 192.5 C 170.76 209.14600000000002 173.927 223.97899999999998 187.5 237 C 197.617 242.839 206.117 241.005 213 231.5 C 217.498 225.171 220.331 218.171 221.5 210.5 C 220.558 201.038 215.558 197.538 206.5 200 C 205.333 201.167 204.167 202.333 203 203.5 C 197.857 220.925 195.19 220.591 195 202.5 C 201.75900000000001 186.539 213.59199999999998 180.872 230.5 185.5 C 227.725 215.552 215.392 241.052 193.5 262 C 166.943 281.975 139.94299999999998 282.642 112.5 264 C 95.6383 249.75 87.4716 231.584 88 209.5 C 93.0707 225.183 102.904 236.683 117.5 244 C 119.259 244.798 120.926 244.631 122.5 243.5 C 113.655 231.81 105.822 219.477 99 206.5 C 96.3456 192.562 97.3456 178.89600000000002 102 165.5 C 103.49 169.819 105.823 174.486 109 179.5 C 115.014 183.926 120.514 188.926 125.5 194.5 C 126.711 191.124 126.544 187.791 125 184.5 C 122.121 178.295 118.454 172.628 114 167.5 C 112.413 163.215 112.413 158.882 114 154.5 C 117.786 144.927 122.12 135.593 127 126.5 C 128.531 121.413 129.531 116.413 130 111.5 C 136.961 102.87 144.295 94.5367 152 86.5 C 152.195 92.5639 152.861 98.5639 154 104.5 C 157.983 113.136 161.983 121.803 166 130.5 C 172.299 147.799 171.465 164.799 163.5 181.5 C 163.833 181.833 164.167 182.167 164.5 182.5 C 175.743 167.943 179.91 151.61 177 133.5 C 174.155 127.145 171.321 120.812 168.5 114.5 C 159.357 101.65 157.857 87.9833 164 73.5 C 177.77100000000002 57.727199999999996 192.27100000000002 42.5606 207.5 28 C 208.332 27.3123 208.998 27.479 209.5 28.5 C 206.668 34.6923 205.835 41.0256 207 47.5 C 210.218 37.8498 214.218 28.5164 219 19.5 C 227.478 12.693 235.978 6.026350000000001 244.5 -0.5 z" stroke-linecap="round" />
</g>
		<g transform="matrix(0.0883991912 0 0 0.0883991912 -6.7146318534 -20.3318139704)" id="q-8SjAxFcNFF3L2nOCC2q"  >
<path style="stroke: none; stroke-width: 1; stroke-dasharray: none; stroke-linecap: butt; stroke-dashoffset: 0; stroke-linejoin: miter; stroke-miterlimit: 4; fill: rgb(238,152,39); fill-rule: evenodd; opacity: 1;"  transform=" translate(-170.500125, -112)" d="M 168.5 114.5 C 169.031 112.456 170.198 110.789 172 109.5 C 172.667 110.167 172.667 110.833 172 111.5 C 171.241 113.063 170.074 114.063 168.5 114.5 z" stroke-linecap="round" />
</g>
		<g transform="matrix(0.0883991912 0 0 0.0883991912 0 0.9684348609)" id="hMTXFV2y8oJO2uFux-p7f"  >
<path style="stroke: none; stroke-width: 1; stroke-dasharray: none; stroke-linecap: butt; stroke-dashoffset: 0; stroke-linejoin: miter; stroke-miterlimit: 4; fill: rgb(238,152,39); fill-rule: evenodd; opacity: 1;"  transform=" translate(-246.4581938901, -352.9552457139)" d="M 125.5 293.5 C 125.047 294.458 124.381 295.292 123.5 296 C 125.5 296.667 127.5 296.667 129.5 296 C 130.056 295.617 130.389 295.117 130.5 294.5 C 144.692 298.712 159.025 299.545 173.5 297 C 169.928 300.815 166.595 304.815 163.5 309 C 128.622 335.084 110.622 370.084 109.5 414 C 109.061 427.408 111.561 440.242 117 452.5 C 121 459.833 125 467.167 129 474.5 C 130.325 479.401 130.825 484.401 130.5 489.5 C 111.755 484.26 99.255 472.26 93 453.5 C 91.0253 446.58 93.5253 443.08 100.5 443 C 103.932 440.633 104.265 437.966 101.5 435 C 92.5805 431.43 86.4139 434.263 83 443.5 C 79.8361 459.188 83.1694 473.521 93 486.5 C 101.252 498.624 112.586 505.95799999999997 127 508.5 C 137.281 507.888 143.614 502.555 146 492.5 C 146.624 487.777 146.29 483.11 145 478.5 C 141.211 468.716 136.545 459.383 131 450.5 C 121.534 422.14 122.534 394.14 134 366.5 C 139.131 353.565 145.798 341.565 154 330.5 C 153.941 335.287 153.774 340.12 153.5 345 C 155.317 354.802 160.817 361.636 170 365.5 C 170.772 365.355 171.439 365.022 172 364.5 C 169.666 355.135 167.499 345.635 165.5 336 C 166.402 323.04 171.235 311.873 180 302.5 C 184.5 298 189 293.5 193.5 289 C 210.85 279.984 224.684 267.151 235 250.5 C 238.578 243.00900000000001 242.412 235.676 246.5 228.5 C 256.881 255.128 274.548 275.295 299.5 289 C 307.784 296.278 314.951 304.444 321 313.5 C 325.889 322.949 327.556 332.949 326 343.5 C 323.536 350.69 321.703 358.023 320.5 365.5 C 329.701 363.468 335.534 357.801 338 348.5 C 338.333 342.833 338.667 337.167 339 331.5 C 359.972 359.076 369.638 390.076 368 424.5 C 366.844 432.278 365.178 439.945 363 447.5 C 356.59 458.32 351.257 469.653 347 481.5 C 345.682 503.186 355.515 511.352 376.5 506 C 397.324 494.656 409.324 477.156 412.5 453.5 C 411.809 447.259 409.642 441.592 406 436.5 C 401.866 433.108 397.366 432.275 392.5 434 C 389.542 436.128 388.876 438.794 390.5 442 C 393.044 443.092 395.711 443.759 398.5 444 C 399.718 445.438 400.385 447.105 400.5 449 C 396.89 465.204 387.89 477.537 373.5 486 C 370.826 487.588 367.992 488.755 365 489.5 C 363.674 489.245 362.674 488.578 362 487.5 C 361.371 482.672 362.038 478.005 364 473.5 C 382.839 446.303 388.172 416.636 380 384.5 C 374.129 362.422 363.795 342.755 349 325.5 C 343.296 319.738 337.129 314.572 330.5 310 C 327.019 305.685 323.353 301.51800000000003 319.5 297.5 C 339.706 300.744 359.04 297.577 377.5 288 C 381.278 285.888 384.778 283.388 388 280.5 C 386.848 286.788 385.515 293.121 384 299.5 C 382.073 309.51 382.073 319.51 384 329.5 C 388.953 343.726 398.786 349.226 413.5 346 C 431.85699999999997 336.803 436.69 322.969 428 304.5 C 418.022 297.069 409.356 298.402 402 308.5 C 398.152 315.608 399.318 321.774 405.5 327 C 411.362 329.988 415.362 328.488 417.5 322.5 C 416.468 319.302 414.301 317.302 411 316.5 C 410.258 311.992 412.091 308.992 416.5 307.5 C 424.078 310.655 426.911 316.321 425 324.5 C 421.539 336.308 413.706 341.808 401.5 341 C 395.709 337.926 392.543 333.093 392 326.5 C 389.457 298.334 396.124 272.66700000000003 412 249.5 C 420.966 225.79500000000002 420.466 202.29500000000002 410.5 179 C 411.449 178.383 412.282 178.549 413 179.5 C 419.333 189.5 425.667 199.5 432 209.5 C 437.306 235.562 440.306 261.895 441 288.5 C 443.581 282.836 444.914 276.836 445 270.5 C 445.603 258.446 445.603 246.446 445 234.5 C 455.629 253.75900000000001 464.629 273.759 472 294.5 C 474.359 306.283 472.025 316.95 465 326.5 C 451.405 338.411 441.405 352.745 435 369.5 C 434.052 383.49 436.052 397.157 441 410.5 C 441.893 411.711 442.726 411.711 443.5 410.5 C 439.984 392.065 442.817 374.73199999999997 452 358.5 C 458.955 349.21 466.288 340.21 474 331.5 C 476.384 327.675 478.384 323.675 480 319.5 C 483.675 329.543 485.675 339.876 486 350.5 C 482.227 367.814 476.894 384.48 470 400.5 C 473.718 397.384 476.718 393.718 479 389.5 C 482.788 382.631 486.288 375.631 489.5 368.5 C 494.634 411.596 482.467 448.929 453 480.5 C 456.861 472.426 460.528 464.093 464 455.5 C 466.774 446.904 467.107 438.237 465 429.5 C 458.676 421.808 451.176 420.641 442.5 426 C 433.335 431.948 431.335 439.615 436.5 449 C 442.062 452.601 447.229 452.101 452 447.5 C 453.123 443.945 451.789 441.945 448 441.5 C 442.261 444.772 440.261 443.105 442 436.5 C 444.873 429.811 449.707 427.644 456.5 430 C 459.616 432.4 460.949 435.567 460.5 439.5 C 459.982 449.22 457.149 458.22 452 466.5 C 446 477.498 438.833 487.665 430.5 497 C 382.948 522.981 332.615 532.315 279.5 525 C 293.137 520.767 304.971 513.6 315 503.5 C 320.624 497.959 322.624 491.292 321 483.5 C 317.88 480.292 314.046 478.959 309.5 479.5 C 305.589 479.297 301.922 480.13 298.5 482 C 295.833 484.333 295.833 486.667 298.5 489 C 300.167 489.667 301.833 489.667 303.5 489 C 306.309 487.342 309.309 486.175 312.5 485.5 C 315.91 486.582 316.41 488.582 314 491.5 C 300.36 504.57 284.194 512.737 265.5 516 C 259.083 516.674 252.75 516.174 246.5 514.5 C 219.591 518.303 196.758 510.303 178 490.5 C 176.92 487.763 177.754 486.096 180.5 485.5 C 184.275 486.555 187.942 487.888 191.5 489.5 C 197.674 487.326 198.007 484.493 192.5 481 C 186.5 479 180.5 479 174.5 481 C 169.701 485.657 169.201 490.823 173 496.5 C 183.038 510.275 196.204 519.775 212.5 525 C 159.655 532.299 109.655 522.966 62.5 497 C 48.9291 482.359 39.0957 465.526 33 446.5 C 32.3333 442.167 32.3333 437.833 33 433.5 C 36.1157 428.609 40.2824 427.442 45.5 430 C 48.747 432.479 50.747 435.812 51.5 440 C 51.2196 441.395 50.5529 442.562 49.5 443.5 C 45.5591 440.336 42.2258 440.836 39.5 445 C 43.855199999999996 451.783 49.5219 453.116 56.5 449 C 61.3093 439.734 59.3093 432.067 50.5 426 C 32.7368 419.076 24.5701 425.243 26 444.5 C 28.6303 457.092 33.4636 468.759 40.5 479.5 C 38.1827 478.769 36.016 477.102 34 474.5 C 7.91553 442.728 -2.084470000000003 407.395 4 368.5 C 7.78838 380.754 14.1217 391.42 23 400.5 C 15.9205 384.925 10.5872 368.592 7 351.5 C 6.69163 340.377 8.69163 329.71 13 319.5 C 14.8061 324.446 17.139400000000002 329.112 20 333.5 C 30.593600000000002 343.757 39.2603 355.423 46 368.5 C 48.5625 373.522 49.8959 378.855 50 384.5 C 50.5824 393.887 50.5824 403.22 50 412.5 C 57.2722 397.929 59.6055 382.596 57 366.5 C 50.1883 350.561 40.1883 336.894 27 325.5 C 20.8246 315.705 18.8246 305.038 21 293.5 C 28.5155 273.475 37.3488 254.142 47.5 235.5 C 47.8333 235.667 48.1667 235.833 48.5 236 C 47.8333 240 47.1667 244 46.5 248 C 46.6125 258.338 47.4459 268.838 49 279.5 C 49.3953 283.019 50.3953 286.352 52 289.5 C 52.3232 263.258 54.9898 237.258 60 211.5 C 66.2509 199.992 73.2509 188.992 81 178.5 C 78.3901 188.29 76.3901 198.29 75 208.5 C 72.863 229.958 78.1963 249.291 91 266.5 C 99.1994 285.363 102.533 305.03 101 325.5 C 98.1657 340.5 89.999 344.66700000000003 76.5 338 C 67.53190000000001 330.774 65.3652 321.941 70 311.5 C 73.487 307.198 77.1537 306.865 81 310.5 C 82.1871 312.044 82.5205 313.711 82 315.5 C 80.172 317.081 78.172 318.415 76 319.5 C 74.9668 326.76 78.1334 329.593 85.5 328 C 94.0722 320.826 94.7389 312.826 87.5 304 C 73.471 295.903 64.3044 299.737 60 315.5 C 59.8951 328.456 65.3951 338.289 76.5 345 C 94.9671 350.212 106.134 343.379 110 324.5 C 110.667 318.833 110.667 313.167 110 307.5 C 108.317 298.426 106.651 289.426 105 280.5 C 111.473 285.486 118.306 289.82 125.5 293.5 z M 245.5 306.5 C 252.641 319.531 260.141 332.531 268 345.5 C 282.087 360.916 295.42 376.916 308 393.5 C 321.583 418.702 320.25 443.369 304 467.5 C 289 482.167 274 482.167 259 467.5 C 247.507 453.091 245.841 437.758 254 421.5 C 265.282 410.379 275.949 411.046 286 423.5 C 293.369 432.504 293.203 441.337 285.5 450 C 277.852 453.01 273.185 450.51 271.5 442.5 C 272.944 439.29 273.444 435.957 273 432.5 C 269.133 426.89 266.467 427.557 265 434.5 C 262.713 447.092 267.213 456.258 278.5 462 C 285.873 463.233 291.706 460.733 296 454.5 C 307.253 435.948 308.586 416.615 300 396.5 C 298 393.167 296 389.833 294 386.5 C 282.76 373.016 271.76 359.35 261 345.5 C 254.93 336.027 249.93 326.027 246 315.5 C 243.494 324.354 239.827 332.688 235 340.5 C 222.151 358.194 208.818 375.527 195 392.5 C 188.383 406.59 186.383 421.59 189 437.5 C 190.8 445.254 194.3 452.087 199.5 458 C 210.61 465.5 219.444 463.334 226 451.5 C 228.789 445.28 229.123 438.946 227 432.5 C 225.899 428.4 223.899 427.733 221 430.5 C 219.226 434.513 219.393 438.513 221.5 442.5 C 219.773 450.53 215.106 453.03 207.5 450 C 202.303 444.348 200.803 437.848 203 430.5 C 209.065 415.04 219.565 410.54 234.5 417 C 243.527 425.789 246.36 436.289 243 448.5 C 239.541 463.309 230.707 473.142 216.5 478 C 204.784 479.651 195.284 475.817 188 466.5 C 171.461 440.534 171.461 414.534 188 388.5 C 200 374.5 212 360.5 224 346.5 C 232.464 333.909 239.63 320.575 245.5 306.5 z" stroke-linecap="round" />
</g>
		<g transform="matrix(0.0883991912 0 0 0.0883991912 -10.5600077195 -4.1547509349)" id="7DnKSw9EXCOxXakTpfygp"  >
<path style="stroke: none; stroke-width: 1; stroke-dasharray: none; stroke-linecap: butt; stroke-dashoffset: 0; stroke-linejoin: miter; stroke-miterlimit: 4; fill: rgb(238,152,39); fill-rule: evenodd; opacity: 1;"  transform=" translate(-127, -295.000125)" d="M 125.5 293.5 C 127.117 294.038 128.784 294.371 130.5 294.5 C 130.389 295.117 130.056 295.617 129.5 296 C 127.5 296.667 125.5 296.667 123.5 296 C 124.381 295.292 125.047 294.458 125.5 293.5 z" stroke-linecap="round" />
</g>
		<g transform="matrix(0.0883991912 0 0 0.0883991912 -13.9349204544 0.7936832518)" id="DpSX7kT6kQeiCVlV5vdqt"  >
<path style="stroke: none; stroke-width: 1; stroke-dasharray: none; stroke-linecap: butt; stroke-dashoffset: 0; stroke-linejoin: miter; stroke-miterlimit: 4; fill: rgb(238,152,39); fill-rule: evenodd; opacity: 1;"  transform=" translate(-88.8219048173, -350.9783994695)" d="M 88.5 348.5 C 89.2389 348.369 89.9056 348.536 90.5 349 C 89.9505 350.845 88.9505 352.345 87.5 353.5 C 86.7992 351.808 87.1325 350.142 88.5 348.5 z" stroke-linecap="round" />
</g>
		<g transform="matrix(0.0883991912 0 0 0.0883991912 -0.0184041715 23.5100449095)" id="_a3hnw8CyCtB6GFy5jtsa"  >
<path style="stroke: none; stroke-width: 1; stroke-dasharray: none; stroke-linecap: butt; stroke-dashoffset: 0; stroke-linejoin: miter; stroke-miterlimit: 4; fill: rgb(238,152,39); fill-rule: evenodd; opacity: 1;"  transform=" translate(-246.25, -607.9531676181)" d="M 187.5 531.5 C 198.858 531.414 210.191 531.914 221.5 533 C 209.115 534.795 197.448 538.795 186.5 545 C 167.748 558.839 163.915 576.006 175 596.5 C 184.056 609.779 196.556 615.612 212.5 614 C 225.547 608.956 233.547 599.622 236.5 586 C 234.688 573.844 227.52100000000002 566.344 215 563.5 C 203.292 565.2 197.292 571.867 197 583.5 C 200.213 589.111 204.879 591.111 211 589.5 C 209.698 585.826 207.864 582.326 205.5 579 C 206.642 573.858 209.809 570.691 215 569.5 C 230.288 576.264 232.45499999999998 586.097 221.5 599 C 211.749 605.929 201.749 606.262 191.5 600 C 174.495 587.453 172.161 572.62 184.5 555.5 C 197.444 544.706 212.444 538.873 229.5 538 C 233.38 536.143 233.046 534.81 228.5 534 C 235.087 533.14 241.087 534.64 246.5 538.5 C 251.913 534.64 257.913 533.14 264.5 534 C 259.954 534.81 259.62 536.143 263.5 538 C 276.625 539.031 288.95799999999997 542.697 300.5 549 C 319.028 562.726 321.028 578.393 306.5 596 C 297.454 604.725 287.12 606.725 275.5 602 C 265.891 595.643 263.058 587.143 267 576.5 C 271.389 570.712 276.889 569.212 283.5 572 C 289.033 577.417 288.533 582.25 282 586.5 C 281.14 589.478 282.307 590.812 285.5 590.5 C 296.325 587.511 298.825 581.178 293 571.5 C 281.904 561.028 271.237 561.695 261 573.5 C 256.896 579.353 255.896 585.687 258 592.5 C 268.16 614.33 283.993 619.83 305.5 609 C 313.61 602.886 319.443 595.053 323 585.5 C 326.049 562.506 316.549 547.006 294.5 539 C 286.799 536.826 279.132 534.826 271.5 533 C 287.008 530.342 302.341 531.009 317.5 535 C 336.878 541.845 347.211 555.345 348.5 575.5 C 347.914 575.291 347.414 574.957 347 574.5 C 346.753 589.196 342.086 602.196 333 613.5 C 327.469 619.366 321.635 624.866 315.5 630 C 314.241 630.982 312.908 631.315 311.5 631 C 314.571 626.752 316.237 622.252 316.5 617.5 C 309.352 625.816 302.019 633.982 294.5 642 C 287.249 646.877 279.749 651.377 272 655.5 C 272.977 651.583 273.643 647.583 274 643.5 C 267 653.5 260 663.5 253 673.5 C 251.254 677.327 249.254 680.993 247 684.5 C 237.419 671.007 228.086 657.34 219 643.5 C 218.383 647.323 219.217 650.823 221.5 654 C 216.945 653.235 212.612 651.568 208.5 649 C 196.02100000000002 640.354 185.35399999999998 629.854 176.5 617.5 C 176.52 622.549 178.186 627.215 181.5 631.5 C 181.333 631.833 181.167 632.167 181 632.5 C 168.528 623.697 158.528 612.697 151 599.5 C 148.359 591.292 146.359 582.958 145 574.5 C 144.667 574.833 144.333 575.167 144 575.5 C 145.24 560.53 152.073 548.696 164.5 540 C 171.88 536.044 179.547 533.211 187.5 531.5 z" stroke-linecap="round" />
</g>
</g>
</g>
</svg>