<svg class="icon" style="width: 1em;height: 1em;vertical-align: middle;fill: currentColor;overflow: hidden;" viewBox="0 0 1024 1024" version="1.1" xmlns="http://www.w3.org/2000/svg" p-id="2363"><path d="M552 92.094l303.65 175.312a80 80 0 0 1 40 69.282v350.624a80 80 0 0 1-40 69.282L552 931.906a80 80 0 0 1-80 0L168.35 756.594a80 80 0 0 1-40-69.282V336.688a80 80 0 0 1 40-69.282L472 92.094a80 80 0 0 1 80 0z m146.593 297.282c-29.064 0-52.803 9.203-72.184 27.28-12.147 11.328-19.343 24.338-23.015 40.31l-0.295 1.32-0.28 1.32-0.265 1.324-0.167 0.885-0.24 1.336-0.151 0.897-0.145 0.903-0.14 0.91-0.196 1.38-0.184 1.402-0.171 1.427-0.159 1.454-0.098 0.987-0.139 1.508-0.127 1.544-0.116 1.584-0.105 1.627-0.065 1.11-0.088 1.706-0.054 1.165-0.05 1.19-0.045 1.214-0.061 1.87-0.053 1.93-0.03 1.323-0.04 2.04-0.05 3.558-0.025 2.995-0.02 4.76v17.474l0.02 4.762 0.026 2.996 0.05 3.558 0.025 1.368 0.044 1.996 0.034 1.295 0.059 1.89 0.066 1.831 0.05 1.19 0.054 1.166 0.088 1.706 0.099 1.657 0.108 1.613 0.12 1.57 0.086 1.026 0.139 1.508 0.098 0.986 0.159 1.455 0.17 1.426 0.185 1.402 0.197 1.381 0.139 0.91 0.145 0.903 0.151 0.897 0.24 1.336 0.167 0.885 0.175 0.883 0.181 0.881 0.285 1.32 0.2 0.88c3.67 15.972 10.867 28.982 23.014 40.31 19.381 18.077 43.12 27.28 72.184 27.28 28.996 0 52.41-9.15 71.85-27.28 12.506-11.663 19.818-25.086 23.477-41.681 0.246-1.115 0.475-2.223 0.688-3.333l0.158-0.833 0.15-0.834 0.146-0.838 0.14-0.84 0.139-0.87 0.196-1.313 0.184-1.33 0.172-1.35 0.108-0.912 0.103-0.924 0.145-1.409 0.09-0.955 0.128-1.462 0.117-1.498 0.107-1.537 0.097-1.58 0.088-1.628 0.054-1.112 0.05-1.135 0.069-1.748 0.078-2.42 0.05-1.888 0.056-2.619 0.044-2.742 0.017-1.42 0.033-3.703 0.02-4.744 0.004-11.617-0.011-4.92-0.013-2.33-0.033-3.701-0.038-2.808-0.023-1.356-0.056-2.619-0.068-2.503-0.06-1.805-0.045-1.172-0.074-1.712-0.054-1.112-0.12-2.158-0.1-1.566-0.11-1.524-0.12-1.486-0.086-0.97-0.09-0.956-0.146-1.409-0.103-0.923-0.164-1.365-0.116-0.898-0.121-0.888-0.127-0.881-0.2-1.31-0.21-1.274-0.146-0.838-0.151-0.834-0.158-0.833-0.218-1.11c-0.15-0.74-0.306-1.48-0.47-2.223-3.66-16.595-10.971-30.018-23.477-41.681-19.44-18.13-42.854-27.28-71.85-27.28z m-403.216 1.872h-68.026v242.256h68.026V391.248z m109.646 0H346.92v242.256h68.026v-112.35l77.736 112.35h58.11V391.248h-68.026v112.104l-77.743-112.104z m293.57 56.892c9.15 0 16.734 3.124 21.66 8.408l0.536 0.566 0.201 0.22 0.394 0.447c0.13 0.15 0.256 0.302 0.382 0.456l0.37 0.465c1.764 2.276 3.13 4.947 4.173 8.643l0.212 0.78c0.103 0.396 0.203 0.805 0.3 1.226l0.189 0.858c0.246 1.166 0.47 2.421 0.671 3.78l0.147 1.037 0.14 1.078 0.066 0.555 0.128 1.14 0.06 0.585 0.117 1.205 0.109 1.249 0.102 1.295 0.095 1.342 0.088 1.39 0.08 1.441 0.075 1.491 0.068 1.544 0.062 1.596 0.081 2.498 0.047 1.736 0.06 2.711 0.032 1.882 0.038 2.938 0.027 3.078 0.016 3.223 0.005 3.373-0.005 3.406-0.016 3.254-0.017 2.086-0.022 2.023-0.028 1.959-0.052 2.822-0.042 1.807-0.047 1.748-0.054 1.69-0.06 1.634-0.067 1.58-0.072 1.525-0.08 1.473-0.042 0.717-0.09 1.397-0.097 1.348-0.104 1.3-0.055 0.632-0.115 1.23c-0.06 0.605-0.122 1.192-0.187 1.763l-0.135 1.12a77.831 77.831 0 0 1-0.534 3.606l-0.172 0.944c-1.143 6.019-2.835 9.77-5.265 12.828l-0.38 0.465-0.392 0.455c-0.265 0.301-0.537 0.596-0.819 0.888l-0.414 0.436c-4.932 5.098-12.398 8.1-21.368 8.1-9.244 0-17.137-3.198-21.995-8.408l-0.323-0.34-0.391-0.423a24.37 24.37 0 0 1-0.192-0.214l-0.373-0.435c-0.184-0.22-0.364-0.442-0.54-0.67l-0.346-0.459a21.156 21.156 0 0 1-2.387-4.216l-0.253-0.613a28.145 28.145 0 0 1-0.592-1.638l-0.22-0.7a34.88 34.88 0 0 1-0.212-0.728l-0.202-0.756a44.793 44.793 0 0 1-0.469-2.026l-0.173-0.867-0.164-0.902-0.157-0.937-0.075-0.482-0.145-0.993-0.137-1.032a92.51 92.51 0 0 1-0.065-0.531l-0.126-1.092-0.06-0.562-0.115-1.156a129 129 0 0 1-0.055-0.594l-0.105-1.221-0.05-0.628-0.094-1.29-0.087-1.338-0.082-1.387-0.075-1.436-0.068-1.487-0.063-1.54-0.057-1.594-0.075-2.493-0.043-1.733-0.054-2.708-0.043-2.843-0.033-2.982-0.026-4.198-0.009-3.322v-2.43l0.009-3.362 0.026-4.248 0.033-3.016 0.043-2.873 0.056-2.736 0.068-2.602 0.08-2.474 0.061-1.58 0.068-1.525 0.073-1.472 0.08-1.422 0.087-1.37 0.093-1.322 0.1-1.275 0.052-0.62 0.11-1.205 0.059-0.585 0.121-1.14 0.064-0.553 0.133-1.075 0.14-1.035 0.073-0.503 0.153-0.976 0.16-0.939 0.169-0.902 0.177-0.868c0.09-0.425 0.184-0.838 0.281-1.239l0.199-0.786 0.207-0.756c0.142-0.494 0.29-0.968 0.443-1.425l0.235-0.672c0.8-2.198 1.76-3.974 2.903-5.542l0.349-0.464c0.53-0.688 1.1-1.338 1.71-1.97l0.405-0.426c4.878-5.034 12.645-8.11 21.711-8.11z" fill="#F28E1E" p-id="2364"></path></svg>