<svg class="icon" style="width: 1em;height: 1em;vertical-align: middle;fill: #ee9827;overflow: hidden;" viewBox="0 0 1024 1024" version="1.1" xmlns="http://www.w3.org/2000/svg" p-id="2851"><path d="M601.516 832h-67.698l124.184-640h81.45a32 32 0 0 0 31.408-25.874l12.484-64C787.198 82.368 772.068 64 751.936 64H432.47a32 32 0 0 0-31.408 25.874l-12.484 64C384.724 173.632 399.854 192 419.986 192h67.692l-124.18 640H284.556a32 32 0 0 0-31.408 25.87l-12.49 64C236.804 941.63 251.934 960 272.068 960h316.958a32 32 0 0 0 31.408-25.87l12.49-64c3.854-19.76-11.276-38.13-31.408-38.13z" fill="" p-id="2852"></path></svg>