<svg class="icon" style="width: 1em;height: 1em;vertical-align: middle;fill: #ffb75a;overflow: hidden;" viewBox="0 0 1024 1024" version="1.1" xmlns="http://www.w3.org/2000/svg" p-id="2124"><path d="M953.856 523.264c-9.728-12.8-24.576-19.968-39.424-19.968-9.216 0-18.944 3.072-26.624 7.68l-197.12 109.056c1.536 5.12 1.536 9.728 1.536 14.848 0 18.944-7.68 38.4-20.992 51.712s-31.232 20.992-50.688 22.016H604.16c-79.36 0-177.664-4.096-228.864-22.016L353.28 675.84c-4.096-0.512-7.168-5.12-7.168-9.728 0-5.632 4.096-10.752 10.752-10.752 0.512 0 4.096 0.512 4.096 0.512 8.704 3.072 15.36 5.632 22.016 7.68 53.76 18.944 167.424 20.992 234.496 20.992 26.112 0 49.664-18.432 51.712-44.544 3.072-29.696-18.944-54.272-48.128-55.808-58.88-2.048-152.576-10.752-180.224-43.008-41.472-48.128-98.304-72.192-174.08-68.608-53.76 2.048-136.704 42.496-180.224 65.536-16.384 8.704-23.552 29.184-16.384 46.08l64.512 159.232c8.704 20.48 31.744 29.184 51.712 18.432l28.16-15.36c22.016-11.776 48.64-12.8 71.168-1.536l132.096 64.512c62.976 30.208 136.704 26.112 195.072-10.752l327.168-205.824c24.576-13.312 30.72-46.592 13.824-69.632zM729.6 105.984c-5.632 186.88-317.44 138.752-256.512 355.84v0.512c0.512 3.072 1.536 5.632 3.072 8.704 0 1.536 0.512 3.072 1.536 4.096 8.704 22.528 22.016 39.424 43.008 54.272 11.264-5.12 28.16-14.848 39.424-21.504 78.336-46.08 103.424-88.576 125.44-156.16-5.12 38.4-6.144 70.144-40.96 113.664-27.648 33.792-68.608 59.392-103.424 78.336 20.48 7.168 83.968 24.064 139.264 1.536 74.24-32.256 133.632-136.192 49.152-439.296zM467.456 118.272c-91.648-37.376-160.768-23.04-163.84-22.528l-4.096 1.024c-8.704 2.048-12.8 12.288-7.68 19.456l2.56 3.584c1.024 1.536 29.696 43.52 12.288 97.792C281.6 293.888 261.12 387.584 323.072 436.736c15.36 12.288 38.4 26.112 51.2 31.232 16.384 6.144 29.184 8.704 39.424 8.704 18.944 0 27.136-8.192 29.696-11.776 2.56-3.072 3.584-7.168 2.56-11.264 0-1.024-12.288-82.944 24.576-127.488 8.192-9.728 30.208-27.136 43.008-35.328 18.944-11.776 35.84-17.408 35.84-17.408 6.144-2.048 10.24-7.168 10.24-13.824 2.56-35.328-14.336-109.568-92.16-141.312z" p-id="2125"></path></svg>