<svg class="icon" style="width: 1.0322265625em;height: 1em;vertical-align: middle;fill: currentColor;overflow: hidden;" viewBox="0 0 1057 1024" version="1.1" xmlns="http://www.w3.org/2000/svg" p-id="4524"><path d="M924.903226 1024H132.129032a132.129032 132.129032 0 0 1-132.129032-132.129032V132.129032a132.129032 132.129032 0 0 1 132.129032-132.129032h792.774194a132.129032 132.129032 0 0 1 132.129032 132.129032v759.741936a132.129032 132.129032 0 0 1-132.129032 132.129032z m66.064516-891.870968a66.064516 66.064516 0 0 0-66.064516-66.064516H132.129032a66.064516 66.064516 0 0 0-66.064516 66.064516v759.741936a66.064516 66.064516 0 0 0 66.064516 66.064516h792.774194a66.064516 66.064516 0 0 0 66.064516-66.064516V132.129032z m-132.129032 660.645162H297.290323a33.032258 33.032258 0 0 1 0-66.064517h561.548387a33.032258 33.032258 0 0 1 0 66.064517z m0-165.161291H297.290323a33.032258 33.032258 0 0 1 0-66.064516h561.548387a33.032258 33.032258 0 0 1 0 66.064516z m0-165.16129H297.290323a33.032258 33.032258 0 0 1 0-66.064516h561.548387a33.032258 33.032258 0 0 1 0 66.064516z m0-165.16129H297.290323a33.032258 33.032258 0 0 1 0-66.064517h561.548387a33.032258 33.032258 0 0 1 0 66.064517zM165.16129 726.709677h66.064516v66.064517H165.16129v-66.064517z m0-165.16129h66.064516v66.064516H165.16129v-66.064516z m0-165.16129h66.064516v66.064516H165.16129v-66.064516z m0-165.161291h66.064516v66.064517H165.16129V231.225806z" fill="#FFBE45" p-id="4525"></path></svg>