<svg class="icon" style="width: 1em;height: 1em;vertical-align: middle;fill: currentColor;overflow: hidden;" viewBox="0 0 1024 1024" version="1.1" xmlns="http://www.w3.org/2000/svg" p-id="3398"><path d="M955.43808 754.62144L660.1728 452.22912l294.8352-251.61728c1.1776 3.6352 2.24768 7.3472 2.24768 11.34592v533.38112c0.00512 3.3024-1.03936 6.24128-1.8176 9.28256zM94.8736 175.232c2.2528-0.4352 4.28544-1.3824 6.57408-1.3824h818.5856c2.33984 0 4.37248 0.95744 6.62528 1.3824l-415.90784 354.81088L94.8736 175.232z m-28.80512 579.39968c-0.73728-3.05152-1.85344-5.96992-1.85344-9.30304V211.95776c0-4.06016 1.14688-7.71072 2.28864-11.38176l294.93248 251.63776-295.36768 302.41792z m432.77312-185.1392a18.11456 18.11456 0 0 0 11.90912 4.40832c4.24448 0 8.46848-1.4336 11.8784-4.40832l108.78976-92.78464 297.7536 304.84992c-2.98496 0.80384-5.888 1.88928-9.1136 1.88928H101.44768c-3.16416 0-6.07744-1.09568-9.00608-1.88928l297.69728-304.79872 108.70272 92.73344z" fill="#2CB663" p-id="3399"></path></svg>