<svg width="24" height="24" viewBox="0 0 24 24" fill="#516AF0" xmlns="http://www.w3.org/2000/svg">
   <path d="M11 16.2805V18.6905C11 19.5657 10.6523 20.4051 10.0335 21.0239C9.41459 21.6428 8.57522 21.9905 7.7 21.9905H5.3C4.42479 21.9905 3.58542 21.6428 2.96655 21.0239C2.34768 20.4051 2 19.5657 2 18.6905V16.2805C2.00264 15.4061 2.35116 14.5682 2.96946 13.9499C3.58776 13.3316 4.4256 12.9831 5.3 12.9805H7.7C8.57441 12.9831 9.41224 13.3316 10.0305 13.9499C10.6488 14.5682 10.9974 15.4061 11 16.2805Z" fill="#516AF0"/>
   <path d="M22 5.28047V7.66047C22 8.09383 21.9146 8.52295 21.7488 8.92332C21.583 9.3237 21.3399 9.68749 21.0335 9.99392C20.727 10.3004 20.3632 10.5434 19.9629 10.7093C19.5625 10.8751 19.1334 10.9605 18.7 10.9605H16.31C15.4356 10.9578 14.5978 10.6093 13.9795 9.99101C13.3612 9.37271 13.0126 8.53487 13.01 7.66047V5.28047C13.0126 4.40607 13.3612 3.56823 13.9795 2.94993C14.5978 2.33163 15.4356 1.98311 16.31 1.98047H18.7C19.5752 1.98047 20.4146 2.32815 21.0335 2.94702C21.6523 3.56589 22 4.40525 22 5.28047Z" fill="#292B2F"/>
   <path d="M18.7 12.9902H16.3C14.4775 12.9902 13 14.4677 13 16.2902V18.6902C13 20.5128 14.4775 21.9902 16.3 21.9902H18.7C20.5225 21.9902 22 20.5128 22 18.6902V16.2902C22 14.4677 20.5225 12.9902 18.7 12.9902Z" fill="#8190A9"/>
   <path d="M2 7.69047V5.28047C2.00264 4.40607 2.35116 3.56823 2.96946 2.94993C3.58776 2.33163 4.4256 1.98311 5.3 1.98047H7.68C8.5544 1.98311 9.39224 2.33163 10.0105 2.94993C10.6288 3.56823 10.9774 4.40607 10.98 5.28047V7.67047C10.98 8.54568 10.6323 9.38505 10.0135 10.0039C9.39458 10.6228 8.55521 10.9705 7.68 10.9705H5.3C4.42824 10.9705 3.59189 10.6256 2.97359 10.011C2.3553 9.39645 2.00528 8.56221 2 7.69047Z" fill="#698BF9"/>
   </svg>
   