<svg class="icon" style="width: 1.041015625em;height: 1em;vertical-align: middle;fill: currentColor;overflow: hidden;" viewBox="0 0 1066 1024" version="1.1" xmlns="http://www.w3.org/2000/svg" p-id="4399"><path d="M298.666667 319.573333a42.666667 42.666667 0 0 0 42.666666-42.666666V251.733333l122.88 122.88a128 128 0 0 0 180.906667 0l195.84-195.84a42.666667 42.666667 0 1 0-60.586667-60.16l-195.413333 195.413334a42.666667 42.666667 0 0 1-60.586667 0L401.493333 191.573333H426.666667a42.666667 42.666667 0 1 0 0-85.333333H298.666667a42.666667 42.666667 0 0 0-42.666667 42.666667v128a42.666667 42.666667 0 0 0 42.666667 42.666666z m680.106666 314.026667a694.186667 694.186667 0 0 0-848.213333 0 114.773333 114.773333 0 0 0-42.666667 85.333333 113.493333 113.493333 0 0 0 33.28 88.32l75.093334 76.8a114.346667 114.346667 0 0 0 147.626666 11.946667l20.053334-13.653333a346.88 346.88 0 0 1 42.666666-23.466667 78.933333 78.933333 0 0 0 42.666667-98.133333l-3.84-10.24a447.573333 447.573333 0 0 1 222.72 0l-3.84 10.24a78.933333 78.933333 0 0 0 42.666667 98.133333c14.762667 6.826667 29.013333 14.634667 42.666666 23.466667l20.053334 13.653333a110.08 110.08 0 0 0 65.706666 21.333333c30.72 0 60.16-12.074667 81.92-33.706666l77.226667-77.653334a113.493333 113.493333 0 0 0 29.44-87.893333 114.773333 114.773333 0 0 0-45.226667-84.48z m-48.64 112.64L853.333333 823.466667a29.013333 29.013333 0 0 1-36.693333 4.266666 497.066667 497.066667 0 0 0-71.68-43.093333l17.066667-46.506667a42.666667 42.666667 0 0 0-25.6-54.613333c-117.12-42.666667-245.546667-42.666667-362.666667 0a42.666667 42.666667 0 0 0-25.6 54.613333l17.066667 46.933334a418.133333 418.133333 0 0 0-46.933334 25.6l-24.746666 17.066666a28.16 28.16 0 0 1-37.546667-4.266666l-76.8-77.226667A28.586667 28.586667 0 0 1 170.666667 725.333333a32.426667 32.426667 0 0 1 11.946666-22.613333 609.706667 609.706667 0 0 1 744.106667 0A32.426667 32.426667 0 0 1 938.666667 725.333333a28.586667 28.586667 0 0 1-8.533334 20.906667z" fill="#f06028" p-id="4400"></path></svg>