<svg class="icon" style="width: 1em;height: 1em;vertical-align: middle;fill: currentColor;overflow: hidden;" viewBox="0 0 1024 1024" version="1.1" xmlns="http://www.w3.org/2000/svg" p-id="2413"><path d="M512 960C265.6 960 64 758.4 64 512S265.6 64 512 64c100.8 0 196.8 33.6 275.2 94.4 14.4 11.2 16 30.4 4.8 44.8-11.2 14.4-30.4 16-44.8 4.8-67.2-51.2-148.8-80-235.2-80C300.8 128 128 300.8 128 512s172.8 384 384 384c86.4 0 168-28.8 236.8-81.6 14.4-11.2 33.6-8 44.8 4.8s8 33.6-4.8 44.8c-80 62.4-176 96-276.8 96z" fill="#F2B441" p-id="2414"></path><path d="M736 544H512c-17.6 0-32-14.4-32-32V224c0-17.6 14.4-32 32-32s32 14.4 32 32v256h192c17.6 0 32 14.4 32 32s-14.4 32-32 32zM992 544h-64c-17.6 0-32-14.4-32-32s14.4-32 32-32h64c17.6 0 32 14.4 32 32s-14.4 32-32 32zM992 352h-112c-17.6 0-32-14.4-32-32s14.4-32 32-32h112c17.6 0 32 14.4 32 32s-14.4 32-32 32zM992 736h-112c-17.6 0-32-14.4-32-32s14.4-32 32-32h112c17.6 0 32 14.4 32 32s-14.4 32-32 32z" fill="#F2B441" p-id="2415"></path></svg>