<svg class="icon" style="width: 1em;height: 1em;vertical-align: middle;fill: currentColor;overflow: hidden;" viewBox="0 0 1024 1024" version="1.1" xmlns="http://www.w3.org/2000/svg" p-id="1510"><path d="M805.093878 462.367347H219.428571V194.35102C219.428571 150.465306 254.955102 114.938776 298.840816 114.938776h426.840817c43.885714 0 79.412245 35.526531 79.412245 79.412244v268.016327z" fill="#F2CB51" p-id="1511"></path><path d="M725.681633 909.061224H298.840816c-43.885714 0-79.412245-35.526531-79.412245-79.412244v-109.191837h585.665307v109.191837c0 43.885714-36.04898 79.412245-79.412245 79.412244z" fill="#F2CB51" p-id="1512"></path><path d="M829.64898 760.163265H194.35102c-43.885714 0-79.412245-35.526531-79.412244-79.412245V502.073469c0-43.885714 35.526531-79.412245 79.412244-79.412245h635.29796c43.885714 0 79.412245 35.526531 79.412244 79.412245v178.677551c0 43.885714-35.526531 79.412245-79.412244 79.412245z" fill="#E5404F" p-id="1513"></path><path d="M685.97551 359.967347H338.546939c-10.971429 0-19.853061-8.881633-19.853061-19.853061 0-10.971429 8.881633-19.853061 19.853061-19.853062h347.428571c10.971429 0 19.853061 8.881633 19.853061 19.853062 0 10.971429-9.404082 19.853061-19.853061 19.853061z" fill="#AF8015" p-id="1514"></path><path d="M685.97551 257.044898H338.546939c-10.971429 0-19.853061-8.881633-19.853061-19.853061 0-10.971429 8.881633-19.853061 19.853061-19.853061h347.428571c10.971429 0 19.853061 8.881633 19.853061 19.853061 0 10.971429-9.404082 19.853061-19.853061 19.853061z" fill="#AF8015" p-id="1515"></path><path d="M419.004082 540.734694c-9.404082-7.836735-21.942857-12.016327-38.138776-12.016327h-35.52653c-3.134694 0-5.22449 2.089796-5.22449 5.22449v136.359184c0 3.134694 2.089796 5.22449 5.22449 5.22449h13.061224c3.134694 0 5.22449-2.089796 5.22449-5.22449v-49.632653h18.285714c10.44898 0 19.330612-2.089796 27.167347-5.746939 7.836735-4.179592 14.106122-9.404082 18.285714-16.718367 4.179592-7.314286 6.269388-15.15102 6.269388-24.032653-0.522449-14.106122-5.22449-25.6-14.628571-33.436735z m-55.379592 8.881633h15.673469c10.44898 0 18.285714 2.089796 22.987755 6.791836 4.702041 4.179592 7.314286 10.44898 7.314286 18.285715 0 8.359184-2.612245 14.628571-7.314286 18.808163-5.22449 4.702041-12.538776 6.791837-21.942857 6.791837h-16.718367v-50.677551zM499.983673 528.718367h-37.616326c-3.134694 0-5.22449 2.089796-5.22449 5.22449v136.359184c0 3.134694 2.089796 5.22449 5.22449 5.22449h42.318367c13.583673 0 26.122449-3.134694 36.571429-8.881633 10.44898-6.269388 18.808163-15.15102 25.077551-26.644898 5.746939-11.493878 8.359184-24.555102 8.359184-39.706122 0-22.987755-6.269388-41.273469-19.330613-53.289796-12.538776-12.016327-31.346939-18.285714-55.379592-18.285715z m-19.853061 21.420409h19.330612c35.004082 0 51.722449 16.195918 51.722449 50.677551 0 17.240816-4.179592 30.302041-13.061224 39.706122-8.359184 9.404082-19.853061 13.583673-35.526531 13.583673h-22.465306v-103.967346zM678.661224 528.718367h-72.097959c-3.134694 0-5.22449 2.089796-5.224489 5.22449v136.359184c0 3.134694 2.089796 5.22449 5.224489 5.22449h13.061225c3.134694 0 5.22449-2.089796 5.22449-5.22449v-59.559184h49.632653c3.134694 0 5.22449-2.089796 5.224489-5.22449v-10.971428c0-3.134694-2.089796-5.22449-5.224489-5.22449h-49.632653v-39.706122h53.812244c3.134694 0 5.22449-2.089796 5.22449-5.22449v-10.971429c0-2.612245-2.612245-4.702041-5.22449-4.702041z" fill="#FFEEF0" p-id="1516"></path></svg>