<svg class="icon" style="width: 1em;height: 1em;vertical-align: middle;fill: currentColor;overflow: hidden;" viewBox="0 0 1024 1024" version="1.1" xmlns="http://www.w3.org/2000/svg" p-id="2577"><path d="M853.76 224L832 104.96a64 64 0 0 0-76.8-51.52L99.2 169.28a64 64 0 0 0-54.4 74.56L128 715.84V352a128 128 0 0 1 130.56-128z m71.68 64H258.56A64 64 0 0 0 192 352v544a64 64 0 0 0 66.56 64h666.88A64 64 0 0 0 992 896V352a64 64 0 0 0-66.56-64z m-170.56 576H429.12s-48-81.6 0-98.88l96-23.04v-29.76a125.44 125.44 0 0 1-59.84-86.72c-32-2.56-25.28-41.92-25.28-41.92 0-20.16 10.56-26.56 18.88-28.48v-19.84a173.44 173.44 0 0 1 11.2-65.92 102.72 102.72 0 0 1 5.44-28.48c43.84-100.16 155.52-40.64 176.64-28.16l4.8 1.92c39.04-16.96 51.52 28.16 55.04 68.16a192 192 0 0 1 6.72 52.48v19.84c8.32 1.92 18.88 8 18.88 28.48 0 0 4.8 39.36-25.28 41.92a126.08 126.08 0 0 1-60.16 86.72v29.76l96 23.04c54.72 17.28 6.72 98.88 6.72 98.88z" fill="#fff" p-id="2578"></path></svg>