<svg class="icon" style="width: 1em;height: 1em;vertical-align: middle;fill: #f5e8d19d;overflow: hidden;" viewBox="0 0 1024 1024" version="1.1" xmlns="http://www.w3.org/2000/svg" p-id="9156"><path d="M621.714286 717.714286l0 137.142857q0 9.142857-6.857143 16t-16 6.857143l-137.142857 0q-9.142857 0-16-6.857143t-6.857143-16l0-137.142857q0-9.142857 6.857143-16t16-6.857143l137.142857 0q9.142857 0 16 6.857143t6.857143 16zm180.571429-342.857143q0 30.857143-8.857143 57.714286t-20 43.714286-31.428571 34-32.857143 24.857143-34.857143 20.285714q-23.428571 13.142857-39.142857 37.142857t-15.714286 38.285714q0 9.714286-6.857143 18.571429t-16 8.857143l-137.142857 0q-8.571429 0-14.571429-10.571429t-6-21.428571l0-25.714286q0-47.428571 37.142857-89.428571t81.714286-62q33.714286-15.428571 48-32t14.285714-43.428571q0-24-26.571429-42.285714t-61.428571-18.285714q-37.142857 0-61.714286 16.571429-20 14.285714-61.142857 65.714286-7.428571 9.142857-17.714286 9.142857-6.857143 0-14.285714-4.571429l-93.714286-71.428571q-7.428571-5.714286-8.857143-14.285714t3.142857-16q91.428571-152 265.142857-152 45.714286 0 92 17.714286t83.428571 47.428571 60.571429 72.857143 23.428571 90.571429z" p-id="9157"></path></svg>