<svg class="icon" style="width: 1em;height: 1em;vertical-align: middle;fill: currentColor;overflow: hidden;" viewBox="0 0 1024 1024" version="1.1" xmlns="http://www.w3.org/2000/svg" p-id="6033"><path d="M768 828.330667V896a42.666667 42.666667 0 0 1-85.333333 0v-213.333333h213.333333a42.666667 42.666667 0 0 1 0 85.333333h-67.669333l97.834666 97.834667a42.666667 42.666667 0 0 1-60.330666 60.330666L768 828.330667z m0-632.661334l97.834667-97.834666a42.666667 42.666667 0 0 1 60.330666 60.330666L828.330667 256H896a42.666667 42.666667 0 0 1 0 85.333333h-213.333333V128a42.666667 42.666667 0 0 1 85.333333 0v67.669333zM195.669333 256L97.834667 158.165333a42.666667 42.666667 0 1 1 60.330666-60.330666L256 195.669333V128a42.666667 42.666667 0 1 1 85.333333 0v213.333333H128a42.666667 42.666667 0 1 1 0-85.333333h67.669333z m0 512H128a42.666667 42.666667 0 0 1 0-85.333333h213.333333v213.333333a42.666667 42.666667 0 0 1-85.333333 0v-67.669333l-97.834667 97.834666a42.666667 42.666667 0 1 1-60.330666-60.330666L195.669333 768z" fill="#1C1C1C" p-id="6034"></path></svg>