<svg class="icon" style="width: 1em;height: 1em;vertical-align: middle;fill: #ee9827;overflow: hidden;" viewBox="0 0 1024 1024" version="1.1" xmlns="http://www.w3.org/2000/svg" p-id="6923"><path d="M914.285714 420.571429v109.714285q0 22.857143-16 38.857143t-38.857143 16H621.714286v237.714286q0 22.857143-16 38.857143t-38.857143 16H457.142857q-22.857143 0-38.857143-16t-16-38.857143v-237.714286H164.571429q-22.857143 0-38.857143-16T109.714286 530.285714V420.571429q0-22.857143 16-38.857143t38.857143-16h237.714285V128q0-22.857143 16-38.857143t38.857143-16h109.714286q22.857143 0 38.857143 16t16 38.857143v237.714286h237.714285q22.857143 0 38.857143 16t16 38.857143z" p-id="6924"></path></svg>