<svg class="icon" style="width: 1em;height: 1em;vertical-align: middle;fill: currentColor;overflow: hidden;" viewBox="0 0 1024 1024" version="1.1" xmlns="http://www.w3.org/2000/svg" p-id="1869"><path d="M153.6 153.6m135.68 0l445.44 0q135.68 0 135.68 135.68l0 445.44q0 135.68-135.68 135.68l-445.44 0q-135.68 0-135.68-135.68l0-445.44q0-135.68 135.68-135.68Z" fill="#D31B1B" p-id="1870"></path><path d="M289.28 153.6h445.44c74.93376 0 135.68 60.74624 135.68 135.68v67.37152H153.6V289.28C153.6 214.34624 214.34624 153.6 289.28 153.6z" fill="#BA0303" p-id="1871"></path><path d="M354.304 299.34848m21.504 0l0 0q21.504 0 21.504 21.504l0 69.29152q0 21.504-21.504 21.504l0 0q-21.504 0-21.504-21.504l0-69.29152q0-21.504 21.504-21.504Z" fill="#FFC9C9" p-id="1872"></path><path d="M626.688 299.34848m21.504 0l0 0q21.504 0 21.504 21.504l0 69.29152q0 21.504-21.504 21.504l0 0q-21.504 0-21.504-21.504l0-69.29152q0-21.504 21.504-21.504Z" fill="#FFC9C9" p-id="1873"></path><path d="M402.57024 461.824c-27.8144 0-50.3296 9.21856-67.54816 27.65568l-1.16736 1.27232c-16.99328 18.17344-25.48992 41.9072-25.85856 71.5776h43.22304c0.7168-20.096 4.8896-35.68128 12.52352-46.08l0.77568-1.01888c8.128-11.12832 20.31872-16.6912 36.57472-16.6912 15.14752 0 26.5984 3.33824 34.3552 10.38592 7.39072 7.04512 11.45344 17.80224 11.45344 32.26624 0 14.83264-5.91104 28.928-17.36192 41.9072-7.38816 7.78752-19.21024 17.80224-36.20608 29.6704l-3.9424 2.72896c-27.81952 19.36896-46.58944 34.5088-56.00256 45.12256l-0.64 0.73216c-17.73568 20.02688-26.23232 43.392-26.23232 70.46656H490.496v-38.20032H360.45568c5.91104-13.35296 22.16448-28.928 49.13408-46.73024l4.24192-2.87488c23.64672-16.11264 40.6656-29.26848 50.432-39.77472 16.9984-18.91584 25.86368-39.68512 25.86368-62.67904 0-23.73376-8.128-42.6496-24.384-57.4848-16.62464-14.8352-37.6832-22.25152-63.17312-22.25152z m218.14528 0c-31.14496 0-55.2448 12.59008-72.29952 38.51264-16.31232 24.44032-24.46848 57.39776-24.46848 98.87488 0 41.472 8.15616 74.432 24.46848 98.87232 17.05472 25.55136 41.15456 38.51264 72.29952 38.51264 30.7712 0 54.87104-12.96128 72.29696-38.51264 16.31232-24.44032 24.47104-57.39776 24.47104-98.87232 0-41.47712-8.15872-74.43456-24.47104-98.87488-17.42592-25.92256-41.5232-38.51264-72.29696-38.51264z m0 38.22848c20.90496 0 35.84 11.43808 44.8 35.05152 5.97248 15.86432 8.96 37.632 8.96 65.30048 0 27.3024-2.98752 49.07008-8.96 65.3056-8.96 23.24224-23.89504 35.0464-44.8 35.0464-21.28128 0-36.21376-11.80416-44.8-35.0464-5.97504-16.23552-8.96-38.0032-8.96-65.3056 0-26.7776 2.79552-48.0256 8.39168-63.74912l0.56832-1.55136c8.58624-23.61344 23.51872-35.05152 44.8-35.05152z" fill="#FFC9C9" p-id="1874"></path></svg>