<svg class="icon" style="width: 1em;height: 1em;vertical-align: middle;fill: #516AF0;overflow: hidden;" viewBox="0 0 1024 1024" version="1.1" xmlns="http://www.w3.org/2000/svg" p-id="15143"><path d="M884.7 213.1c-9.7 0-18.9-1.9-27.4-5.2L708.9 327c0.6 3.8 0.9 7.8 0.9 11.8 0 41.2-33.4 74.7-74.7 74.7-41.2 0-74.7-33.4-74.7-74.7 0-4.3 0.4-8.5 1.1-12.6L414.6 208c-8.4 3.3-17.6 5.1-27.2 5.1-7.1 0-13.9-1-20.3-2.8L209.8 367.6c1.8 6.5 2.8 13.3 2.8 20.3 0 41.2-33.4 74.7-74.7 74.7S63.2 429.2 63.2 388s33.4-74.7 74.7-74.7c7.1 0 13.9 1 20.3 2.8l157.3-157.3c-1.8-6.5-2.8-13.3-2.8-20.3 0-41.2 33.4-74.7 74.7-74.7s74.7 33.4 74.7 74.7c0 4.5-0.4 9-1.2 13.3l146.4 117.8c8.6-3.5 18-5.4 27.8-5.4 10.1 0 19.8 2 28.6 5.7l147.4-118.3c-0.7-4.2-1.2-8.6-1.2-13.1 0-41.2 33.4-74.7 74.7-74.7 41.2 0 74.7 33.4 74.7 74.7s-33.4 74.6-74.6 74.6z" fill="#516AF0" p-id="15144"></path><path d="M193 959.6H89c-13.8 0-25-11.3-25-25V735.3c0-13.8 11.2-25 25-25h104c13.8 0 25 11.3 25 25v199.2c0 13.8-11.2 25.1-25 25.1zM935 959.6H831c-13.8 0-25-11.3-25-25V480.3c0-13.8 11.3-25 25-25h104c13.8 0 25 11.3 25 25v454.2c0 13.8-11.2 25.1-25 25.1zM440.3 959.6h-104c-13.8 0-25-11.3-25-25V480.3c0-13.8 11.3-25 25-25h104c13.8 0 25 11.3 25 25v454.2c0 13.8-11.2 25.1-25 25.1zM687.7 959.6h-104c-13.8 0-25-11.3-25-25V671.3c0-13.8 11.3-25 25-25h104c13.8 0 25 11.3 25 25v263.2c0 13.8-11.3 25.1-25 25.1z" p-id="15145"></path></svg>