<svg class="icon" style="width: 1em;height: 1em;vertical-align: middle;fill: currentColor;overflow: hidden;" viewBox="0 0 1024 1024" version="1.1" xmlns="http://www.w3.org/2000/svg" p-id="4195"><path d="M534.592 30.88l-22.112-21.12-11.104 10.752c-122.56 118.592-246.528 173.888-372.48 166.944l-16.896-0.96v462.656c0 118.4 128.096 234.24 381.6 351.04l20.32 9.28 6.4-2.72c259.968-109.088 391.68-227.328 391.68-357.6V185.792l-17.568 1.728c-115.552 11.296-235.392-40.512-359.84-156.64z m-22.08 23.168c123.328 115.136 244.512 171.04 363.456 166.72l4.032-0.192v428.576l-0.128 6.272c-4.384 108.928-122.752 215.104-358.208 316l-7.296 3.072-7.232-3.296-26.496-12.416C255.424 851.264 144 746.976 144 649.152V219.936l7.04 0.096c119.36-0.32 236.096-52.32 349.888-155.264l11.584-10.72z" fill="#646E7F" p-id="4196"></path><path d="M512 240a272 272 0 1 1 0 544 272 272 0 0 1 0-544z m136.288 176l-144.128 149.888-96.448-100.288-23.712 24.64 108.288 112.64 1.6 1.472a16.32 16.32 0 0 0 22.112-1.472L672 440.64l-23.712-24.64z" fill="#00C296" p-id="4197"></path></svg>