<svg class="icon" style="width: 1em;height: 1em;vertical-align: middle;fill: #47d3e6;overflow: hidden;" viewBox="0 0 1024 1024" version="1.1" xmlns="http://www.w3.org/2000/svg" p-id="3153"><path d="M470.016 86.016v42.016q-110.016 12-196 82.016l-34.016-32-60 60 34.016 32q-72 88-86.016 200H85.984v84H128q14.016 110.016 86.016 196l-34.016 32L240 842.048l32-32q88 72 198.016 86.016v42.016h84v-42.016q110.016-14.016 196-86.016l34.016 32 60-60-34.016-32q72-84 86.016-196h42.016v-84h-42.016q-14.016-112-86.016-198.016l34.016-34.016-60-60-32 32Q666.016 142.016 554.016 128V85.984h-84z m0 128v128l-44 20-92-92q62.016-46.016 136-56z m84 0q76 12 138.016 56l-94.016 92-44-20v-128z m-280 117.984l88 94.016-20 44h-128q10.016-72 58.016-140l2.016 2.016z m476 0q48 60 60 138.016h-128l-20-44 90.016-94.016h-2.016zM512 426.016q36 0 60.992 24.992T597.984 512t-24.992 60.992-60.992 24.992-60.992-24.992T426.016 512t24.992-60.992T512 426.016z m-297.984 128h128l24 44L272 690.016q-46.016-60-58.016-136z m468 0h128q-12 76-58.016 136l-90.016-92 20-44z m-256 108l44 20v128q-76-12-138.016-60l94.016-88z m172 0l92 88q-68 52-136 60v-128l44-20z" p-id="3154"></path></svg>