<svg class="icon" style="width: 1em;height: 1em;vertical-align: middle;fill: currentColor;overflow: hidden;" viewBox="0 0 1024 1024" version="1.1" xmlns="http://www.w3.org/2000/svg" p-id="3514"><path d="M422 480c-49.624 0-90 40.376-90 90S372.376 660 422 660 512 619.624 512 570 471.624 480 422 480z m567.968-354.968c9.056 55.664-12.992 111.2-57.968 144.96v664.008c0 49.624-40.376 90-90 90h-600C192.376 1024 152 983.624 152 934V600h-30C72.376 600 32 559.624 32 510v-360C32 67.288 99.288 0 182 0h653.584c76.416 0 142.792 53.752 154.384 125.032zM152 210C152 160.376 192.376 120 242 120h24.84c-12.384-34.92-45.728-60-84.84-60-49.624 0-90 40.376-90 90v360a30.032 30.032 0 0 0 30 30H152V210z m114.84-30H242a30.032 30.032 0 0 0-30 30v24.84a90.424 90.424 0 0 0 54.84-54.84zM422 600A30.032 30.032 0 0 1 392 570a30.032 30.032 0 0 1 30-30 30.032 30.032 0 0 1 30 30A30.032 30.032 0 0 1 422 600z m240 124c49.624 0 90 40.376 90 90S711.624 904 662 904s-90-40.376-90-90S612.376 724 662 724z m0 120a30.032 30.032 0 0 0 30-30A30.032 30.032 0 0 0 662 784a30.032 30.032 0 0 0-30 30 30.032 30.032 0 0 0 30 30z m16.576-357a30 30 0 0 1 8.424 41.576l-240 362a30 30 0 0 1-50-33.152l240-362a30 30 0 0 1 41.576-8.424zM872 360v-60H212V360h90a30 30 0 0 1 0 60H212v514a30.032 30.032 0 0 0 30 30h600a30.032 30.032 0 0 0 30-30V420H782a30 30 0 0 1 0-60H872z m-30-120c53.84 0 98.112-47.768 88.752-105.336-6.928-42.56-47.84-74.664-95.168-74.664H301.92A149.24 149.24 0 0 1 332 150c0 33.736-11.2 64.912-30.072 90h540.072z m-360 120a30 30 0 0 1 0 60h-60a30 30 0 0 1 0-60h60z m180 0a30 30 0 0 1 0 60h-60a30 30 0 0 1 0-60h60z" fill="#FFBE45" p-id="3515"></path></svg>