<svg class="icon" style="width: 1em;height: 1em;vertical-align: middle;fill: #fff;overflow: hidden;" viewBox="0 0 1024 1024" version="1.1" xmlns="http://www.w3.org/2000/svg" p-id="3622"><path d="M853.32992 136.52992h-102.4V102.4h-68.25984v34.12992H341.32992V102.4h-68.25984v34.12992h-102.4C133.13024 136.52992 102.4 167.2704 102.4 204.8v68.27008h819.2V204.8c0-37.5296-30.73024-68.27008-68.27008-68.27008zM102.4 341.32992v512C102.4 890.86976 133.13024 921.6 170.67008 921.6h682.65984C890.86976 921.6 921.6 890.86976 921.6 853.32992v-512H102.4zM443.72992 819.2h-68.25984V512H307.2v-68.27008h136.52992V819.2z m273.03936-273.07008a102.0416 102.0416 0 0 1-30.0032 72.3968l-96.57344 96.54272 0.03072 0.06144a34.18112 34.18112 0 0 0-10.02496 24.13568v11.66336H716.8V819.2H512v-79.93344a101.89824 101.89824 0 0 1 29.97248-72.3968l96.5632-96.60416a33.98656 33.98656 0 0 0 9.97376-24.13568h0.03072C648.52992 527.26784 633.27232 512 614.4 512s-34.12992 15.26784-34.12992 34.12992H512c0-56.53504 45.86496-102.4 102.4-102.4s102.4 45.86496 102.4 102.4h-0.07168 0.04096z" p-id="3623"></path></svg>