<svg class="icon" style="width: 1em;height: 1em;vertical-align: middle;fill: currentColor;overflow: hidden;" viewBox="0 0 1024 1024" version="1.1" xmlns="http://www.w3.org/2000/svg" p-id="4025"><path d="M593.774161 814.199797c0 22.500916-9.16704 43.126755-23.959309 57.919023-14.792269 14.792269-35.209766 23.959308-57.919023 23.959308-22.500916 0-43.126755-9.16704-57.919023-23.959308-14.792269-14.792269-23.959308-35.209766-23.959309-57.919023H593.774161z" fill="#F57F17" p-id="4026"></path><path d="M575.440081 235.009563c42.085046 6.666938 79.794914 26.876094 108.754426 55.835605 35.834791 35.834791 58.127365 85.420142 58.127365 140.005697v388.557477H281.469786V430.642523c0-54.585554 22.292574-104.170905 58.127366-140.005697 28.959512-28.959512 66.669379-48.960326 108.754425-55.835605-5.625229-10.208749-8.750356-22.084232-8.750356-34.584741 0-20.000814 8.125331-37.91821 21.250864-51.043743 13.125534-13.125534 31.04293-21.250865 51.043744-21.250865s37.91821 8.125331 51.043744 21.250865c13.125534 13.125534 21.250865 31.04293 21.250864 51.043743 0 12.500509-3.125127 24.375992-8.750356 34.793083z m-41.876704-56.252289c-5.416887-5.416887-13.125534-8.958698-21.459206-8.958698-8.333672 0-16.042319 3.333469-21.459207 8.958698-5.416887 5.416887-8.958698 13.125534-8.958697 21.459206 0 8.333672 3.333469 16.042319 8.958697 21.459207 5.416887 5.416887 13.125534 8.958698 21.459207 8.958698 8.333672 0 16.042319-3.333469 21.459206-8.958698 5.416887-5.416887 8.958698-13.125534 8.958698-21.459207-0.208342-8.333672-3.541811-15.833978-8.958698-21.459206z" fill="#F9A825" p-id="4027"></path><path d="M208.341811 777.114954c-11.667141 0-21.042523 9.375381-21.042523 21.042523s9.375381 21.042523 21.042523 21.042523h607.52472c11.667141 0 21.042523-9.375381 21.042523-21.042523s-9.375381-21.042523-21.042523-21.042523H208.341811z" fill="#EF6C00" p-id="4028"></path><path d="M512.104171 230.634385c8.333672 0 16.042319-3.333469 21.459206-8.958698 5.416887-5.416887 8.958698-13.125534 8.958698-21.459207 0-8.333672-3.333469-16.042319-8.958698-21.459206-5.416887-5.416887-13.125534-8.958698-21.459206-8.958698-8.333672 0-16.042319 3.333469-21.459207 8.958698-5.416887 5.416887-8.958698 13.125534-8.958697 21.459206 0 8.333672 3.333469 16.042319 8.958697 21.459207 5.416887 5.625229 12.917192 8.958698 21.459207 8.958698z" fill="#F57F17" p-id="4029"></path></svg>