<svg class="icon" style="width: 1em;height: 1em;vertical-align: middle;fill: #516AF0;overflow: hidden;" viewBox="0 0 1024 1024" version="1.1" xmlns="http://www.w3.org/2000/svg" p-id="13932"><path d="M320 426.666667a85.333333 85.333333 0 1 1-85.333333 85.333333 85.333333 85.333333 0 0 1 85.333333-85.333333m0-85.333334a170.666667 170.666667 0 1 0 170.666667 170.666667 170.666667 170.666667 0 0 0-170.666667-170.666667z m0 384a192 192 0 0 0-192 192h85.333333a106.666667 106.666667 0 0 1 213.333334 0h85.333333a192 192 0 0 0-192-192z m384-298.666666a85.333333 85.333333 0 1 1-85.333333 85.333333 85.333333 85.333333 0 0 1 85.333333-85.333333m0-85.333334a170.666667 170.666667 0 1 0 170.666667 170.666667 170.666667 170.666667 0 0 0-170.666667-170.666667z m0 384a192 192 0 0 0-192 192h85.333333a106.666667 106.666667 0 0 1 213.333334 0h85.333333a192 192 0 0 0-192-192zM213.333333 327.466667V192h597.333334v135.466667a213.333333 213.333333 0 0 1 85.333333 91.946666V106.666667H128v312.746666a213.333333 213.333333 0 0 1 85.333333-91.946666z" p-id="13933"></path></svg>