<svg class="icon" style="width: 1em;height: 1em;vertical-align: middle;fill: #141E46;overflow: hidden;" viewBox="0 0 1024 1024" version="1.1" xmlns="http://www.w3.org/2000/svg" p-id="2821"><path d="M722.678 524.908c-59.267-46.975-132.445-74.779-211.678-74.78 106.324-0.003 192.516-86.196 192.516-192.521 0-106.327-86.195-192.521-192.522-192.521s-192.521 86.194-192.521 192.52c0 106.325 86.191 192.518 192.515 192.521-197.461 0.004-357.534 172.391-357.534 385.043h366.899c-1.404-11.512-2.348-23.161-2.348-35.053 0-129.959 86.298-239.655 204.673-275.209zM792.598 581.627c-105.659 0-191.313 85.654-191.313 191.313s85.654 191.313 191.313 191.313S983.911 878.6 983.911 772.94s-85.654-191.313-191.313-191.313z m73.582 230.672h-80.94c-17.673 0-32-14.327-32-32V662.567c0-17.673 14.327-32 32-32s32 14.327 32 32v85.731h48.939c17.673 0 32 14.327 32 32s-14.326 32.001-31.999 32.001z" p-id="2822"></path></svg>