<svg class="icon" style="width: 1em;height: 1em;vertical-align: middle;fill: currentColor;overflow: hidden;" viewBox="0 0 1024 1024" version="1.1" xmlns="http://www.w3.org/2000/svg" p-id="3551"><path d="M960 768c0 22.44-5.52 43.24-14.38 61.56L662.72 467.82 942.56 188c10.88 19.74 17.44 42.94 17.44 68v512zM512 533.5L901.38 144.12C885.4 134.12 867.42 128 848 128H176c-19.44 0-37.44 6.12-53.34 16.12L512 533.5z m108.56-23.56l-90.12 90.18c-5.28 5.24-11.84 7.88-18.42 7.88-6.6 0-13.16-2.62-18.42-7.88l-90.16-90.18L116.94 876.32C134.12 888.62 154.24 896 176 896h672c21.76 0 41.9-7.38 59.06-19.68L620.56 509.94zM81.44 188c-10.88 19.74-17.44 42.94-17.44 68v512c0 22.44 5.5 43.24 14.38 61.56l282.88-361.82L81.44 188z" fill="#F28E1E" p-id="3552"></path></svg>