<svg class="icon" style="width: 1em;height: 1em;vertical-align: middle;fill: currentColor;overflow: hidden;" viewBox="0 0 1024 1024" version="1.1" xmlns="http://www.w3.org/2000/svg" p-id="2121"><path d="M373.76 460.8h-204.8c-40.96 0-76.8-35.84-76.8-76.8v-204.8c0-40.96 35.84-76.8 76.8-76.8h204.8c40.96 0 76.8 35.84 76.8 76.8v204.8c0 40.96-35.84 76.8-76.8 76.8z m-204.8-307.2c-10.24 0-25.6 15.36-25.6 25.6v204.8c0 10.24 15.36 25.6 25.6 25.6h204.8c15.36 0 25.6-15.36 25.6-25.6v-204.8c0-10.24-10.24-25.6-25.6-25.6h-204.8zM824.32 460.8h-204.8c-40.96 0-76.8-35.84-76.8-76.8v-204.8c0-40.96 35.84-76.8 76.8-76.8h204.8c40.96 0 76.8 35.84 76.8 76.8v204.8c0 40.96-35.84 76.8-76.8 76.8z m-204.8-307.2c-15.36 0-25.6 15.36-25.6 25.6v204.8c0 10.24 10.24 25.6 25.6 25.6h204.8c10.24 0 25.6-15.36 25.6-25.6v-204.8c0-10.24-15.36-25.6-25.6-25.6h-204.8zM373.76 916.48h-204.8c-40.96 0-76.8-35.84-76.8-76.8v-204.8c0-40.96 35.84-76.8 76.8-76.8h204.8c46.08 0 76.8 30.72 76.8 76.8v204.8c0 40.96-35.84 76.8-76.8 76.8z m-204.8-307.2c-10.24 0-25.6 10.24-25.6 25.6v204.8c0 15.36 15.36 25.6 25.6 25.6h204.8c15.36 0 25.6-15.36 25.6-25.6v-204.8c0-15.36-10.24-25.6-25.6-25.6h-204.8zM814.08 921.6h-184.32c-10.24 0-15.36-5.12-20.48-10.24L512 752.64c-5.12-10.24-5.12-20.48 0-25.6l97.28-163.84c5.12-10.24 15.36-10.24 20.48-10.24h184.32c10.24 0 15.36 5.12 20.48 15.36l92.16 163.84c5.12 10.24 5.12 15.36 0 25.6l-92.16 158.72c-5.12 0-10.24 5.12-20.48 5.12z m-168.96-51.2h153.6l76.8-133.12-76.8-138.24h-153.6L563.2 737.28l81.92 133.12z" fill="#fff" p-id="2122"></path><path d="M721.92 737.28m-51.2 0a51.2 51.2 0 1 0 102.4 0 51.2 51.2 0 1 0-102.4 0Z" fill="#fff" p-id="2123"></path></svg>