<svg class="icon" style="width: 1em;height: 1em;vertical-align: middle;fill: #b7ceec;overflow: hidden;" viewBox="0 0 1024 1024" version="1.1" xmlns="http://www.w3.org/2000/svg" p-id="20037"><path d="M411.4 112H202c-50.3 0-87.9 37.2-87.9 80.6v206.7c0 45.5 37.7 82.7 83.8 82.7h213.6c46.1 0 83.8-37.2 83.8-82.7V192.6c-4.3-43.4-42-80.6-83.9-80.6zM828.2 112H618.8c-46.1 0-83.8 37.2-83.8 80.6v206.7c0 45.5 37.7 82.7 83.8 82.7h209.4c46.1 0 83.8-37.2 83.8-82.7V192.6c2-43.4-35.7-80.6-83.8-80.6zM405.9 539.9H196.5c-50.3 0-87.9 37.2-87.9 80.6v206.7c0 45.5 37.7 82.7 83.8 82.7H406c46.1 0 83.8-37.2 83.8-82.7V620.5c-4.3-43.4-42-80.6-83.9-80.6zM827.8 539.9H618.4c-46.1 0-83.8 37.2-83.8 80.6v206.7c0 45.5 37.7 82.7 83.8 82.7h209.4c46.1 0 83.8-37.2 83.8-82.7V620.5c2-43.4-35.7-80.6-83.8-80.6z" p-id="20038"></path></svg>