<svg class="icon" style="width: 1em;height: 1em;vertical-align: middle;fill: currentColor;overflow: hidden;" viewBox="0 0 1024 1024" version="1.1" xmlns="http://www.w3.org/2000/svg" p-id="3439"><path d="M462 865a18 18 0 0 1-18-18V733a18 18 0 0 1 36 0v114a18 18 0 0 1-18 18zM512 920a18 18 0 0 1-18-18V672.21a18 18 0 0 1 36 0V902a18 18 0 0 1-18 18zM562 865a18 18 0 0 1-18-18V733a18 18 0 0 1 36 0v114a18 18 0 0 1-18 18zM505.5 635.05l-13.08-13.82a316.2 316.2 0 0 1 0-434.54l13.08-13.82 13.08 13.82a316.2 316.2 0 0 1 0 434.54z m0-408.8a280.23 280.23 0 0 0 0 355.41 280.23 280.23 0 0 0 0-355.41z" fill="#C1272D" p-id="3440"></path><path d="M499.37 629.86A316.21 316.21 0 0 1 282.1 253.53l4.42-18.5 18.23 5.43a316.11 316.11 0 0 1 139.49 85.73l-26.18 24.71a279.68 279.68 0 0 0-104.85-69.63 280.21 280.21 0 0 0 196.44 314.08z" fill="#C1272D" p-id="3441"></path><path d="M436.08 642.54a316.4 316.4 0 0 1-302.7-226L128 398.35l18.51-4.41a316.07 316.07 0 0 1 163.66 4.5l-10.31 34.49a279.73 279.73 0 0 0-125.62-7.88 280.22 280.22 0 0 0 327.12 173.79l8.35 35a317 317 0 0 1-73.63 8.7z" fill="#C1272D" p-id="3442"></path><path d="M303.38 718.62a315 315 0 0 1-217.27-86.47l-13.82-13.08L86.11 606a316.18 316.18 0 0 1 144-77.94l8.32 35a279.84 279.84 0 0 0-112.74 56A280.23 280.23 0 0 0 495.91 606l24.74 26.15a314.91 314.91 0 0 1-217.27 86.47z" fill="#C1272D" p-id="3443"></path><path d="M226.59 851.16a317.54 317.54 0 0 1-73.59-8.69l-18.51-4.41 5.43-18.24a316.11 316.11 0 0 1 85.73-139.48l24.72 26.17a279.78 279.78 0 0 0-69.64 104.86 280.21 280.21 0 0 0 314.05-196.45l34.5 10.28a316.42 316.42 0 0 1-302.69 226z" fill="#C1272D" p-id="3444"></path><path d="M513.37 623.36l-10.28-34.51a280 280 0 0 0 196.44-314.08A279.47 279.47 0 0 0 592.24 347l-26.49-24.38A315.75 315.75 0 0 1 708 234l18.23-5.43 4.42 18.5a316.21 316.21 0 0 1-217.28 376.29z" fill="#C1272D" p-id="3445"></path><path d="M581.42 631.28a317 317 0 0 1-73.63-8.69l8.35-35a280 280 0 0 0 327.17-173.8 279.3 279.3 0 0 0-129 8.93l-10.76-34.36A315.82 315.82 0 0 1 871 382.68l18.51 4.41-5.43 18.24a316.41 316.41 0 0 1-302.7 226z" fill="#C1272D" p-id="3446"></path><path d="M720.62 705.62a314.91 314.91 0 0 1-217.27-86.47L528.09 593a279.94 279.94 0 0 0 370.22 13.07 279.39 279.39 0 0 0-116.21-56.78l7.9-35.13A315.83 315.83 0 0 1 937.89 593l13.82 13.07-13.82 13.08a315.17 315.17 0 0 1-217.27 86.47z" fill="#C1272D" p-id="3447"></path><path d="M803.91 839.9a316.42 316.42 0 0 1-302.69-226l34.5-10.27a280.21 280.21 0 0 0 314.09 196.48 279.42 279.42 0 0 0-72.26-107.3l24.38-26.49a315.83 315.83 0 0 1 88.69 142.24l5.43 18.24-18.51 4.41a316.94 316.94 0 0 1-73.63 8.69z" fill="#C1272D" p-id="3448"></path><path d="M462 573m12 0l76 0q12 0 12 12l0 76q0 12-12 12l-76 0q-12 0-12-12l0-76q0-12 12-12Z" fill="#FBB03B" p-id="3449"></path><path d="M550 691h-76a30 30 0 0 1-30-30v-76a30 30 0 0 1 30-30h76a30 30 0 0 1 30 30v76a30 30 0 0 1-30 30z m-70-36h64v-64h-64z" fill="#C1272D" p-id="3450"></path><path d="M512 749.15a29.77 29.77 0 0 1-21.21-8.77l-96.17-96.17a30 30 0 0 1 0-42.42l96.17-96.17a30 30 0 0 1 42.42 0l96.17 96.17a30 30 0 0 1 0 42.42l-96.17 96.17a29.77 29.77 0 0 1-21.21 8.77zM424.32 623L512 710.68 599.68 623 512 535.32z m179.6-4.24z" fill="#C1272D" p-id="3451"></path></svg>