<svg class="icon" style="width: 1em;height: 1em;vertical-align: middle;fill: currentColor;overflow: hidden;" viewBox="0 0 1024 1024" version="1.1" xmlns="http://www.w3.org/2000/svg" p-id="2719"><path d="M620.9 67.2H236.5c-30.3 0-54.9 25-54.9 55.9v782.7c0 30.9 24.6 55.9 54.9 55.9h549c30.3 0 54.9-25 54.9-55.9v-615L620.9 67.2z" fill="#FF4242" p-id="2720"></path><path d="M802 925.9H220.1V109.7h379.6v218.9H802z" fill="#FFFFFF" p-id="2721"></path><path d="M802 922.6H220.1V106.4h379.6v218.8H802z" fill="#FF6464" p-id="2722"></path><path d="M348.9 650.4c35.1 0 52.6 14.9 52.6 44.8 0 30.1-17.8 45.2-53.1 45.2h-38.2v57.4h-22.5V650.4h61.2z m-38.6 70.8H347c11.1 0 19.2-2.1 24.4-6.2 5-4.1 7.6-10.7 7.6-19.8 0-9.1-2.7-15.7-7.8-19.4-5.2-4.1-13.2-6.2-24.2-6.2h-36.7v51.6zM476.1 650.4c23.7 0 41.7 6.6 54.1 20 11.6 12.4 17.3 30.3 17.3 53.7 0 23.1-6 41.1-17.8 53.9-12.4 13.2-30.3 19.8-54.1 19.8h-53.3V650.4h53.8z m-31.2 128.2h26.6c18.6 0 32.4-4.5 41.1-13.4 8.5-8.9 12.8-22.5 12.8-41.1 0-19-4.3-32.6-12.6-41.3-8.7-8.9-22.3-13.2-40.9-13.2h-27v109zM670.5 650.4v19.2h-77.6v42.9h73.3v19.2h-73.3v66.1h-22.5V650.4h100.1z" fill="#FFFFFF" p-id="2723"></path></svg>