<svg class="icon" style="width: 1em;height: 1em;vertical-align: middle;fill: currentColor;overflow: hidden;" viewBox="0 0 1024 1024" version="1.1" xmlns="http://www.w3.org/2000/svg" p-id="2755"><path d="M511.674921 947.28127A70.054603 70.054603 0 1 0 441.620317 877.714286a70.217143 70.217143 0 0 0 70.054604 69.566984z m0-91.347302A21.292698 21.292698 0 1 1 490.382222 877.714286a21.292698 21.292698 0 0 1 21.292699-21.780318z" fill="#0074FF" p-id="2756"></path><path d="M808.634921 759.710476V83.382857A83.545397 83.545397 0 0 0 725.252063 0H298.747937A83.545397 83.545397 0 0 0 215.365079 83.382857v857.234286A83.545397 83.545397 0 0 0 298.747937 1024h426.504126a83.545397 83.545397 0 0 0 83.382858-83.382857V759.710476zM298.747937 48.761905h426.504126a34.620952 34.620952 0 0 1 34.620953 34.620952v651.946667H264.126984V83.382857A34.620952 34.620952 0 0 1 298.747937 48.761905zM759.873016 940.617143A34.620952 34.620952 0 0 1 725.252063 975.238095H298.747937A34.620952 34.620952 0 0 1 264.126984 940.617143v-156.525714h495.746032z" fill="#0074FF" p-id="2757"></path></svg>