<svg class="icon" style="width: 1em;height: 1em;vertical-align: middle;fill: currentColor;overflow: hidden;" viewBox="0 0 1024 1024" version="1.1" xmlns="http://www.w3.org/2000/svg" p-id="807"><path d="M511.992368 15.646084c134.934595 0 257.312638 52.943061 345.568456 138.989526 88.25073 85.519884 143.179283 204.119006 143.179284 334.880379 0 116.523322-43.731701 223.224755-115.738538 306.190591-31.45116 35.128326-90.096309-9.825705-57.020888-47.291849 57.585627-66.679969 91.990222-149.863307 97.035992-236.934953H782.624719c-2.140668 59.431206-10.138601 116.786613-23.969632 168.203351-8.539778 32.553928-52.276567 20.652424-44.297713-6.988016a718.176998 718.176998 0 0 0 22.936821-161.215335H286.691814a690.615418 690.615418 0 0 0 23.477393 161.215335c7.997933 29.477115-36.816185 37.991454-45.330524 4.65147a759.615398 759.615398 0 0 1-23.477394-165.866805H98.966791A390.409285 390.409285 0 0 0 196.592961 748.152712c32.50941 37.728163-26.676312 82.682195-57.611066 47.553868-71.980126-82.969652-115.711827-189.929288-115.711827-306.190591 0-130.755013 54.928553-249.360494 143.179283-334.880379 88.272353-86.045193 210.362939-138.989526 345.543017-138.989526z m149.060715 857.806308v98.469463c0 19.890534-17.078284 36.416798-37.332591 36.416798H400.806089c-20.79488 0-37.873164-16.526263-37.873164-36.416798v-98.469463H249.630145c-20.796152 0-37.603514-16.265517-37.603514-36.655922a37.602242 37.602242 0 0 1 10.92593-25.850825l262.387662-254.248545c14.667965-13.976032 38.390842-13.976032 53.600652 0l0.516406 1.025181 261.845817 253.223364a36.016138 36.016138 0 0 1 0 51.392571 36.943379 36.943379 0 0 1-26.923067 11.114176h-113.329491z m-75.207027 62.029771v-98.685693c0-20.175448 17.055389-36.439692 37.874436-36.439692h59.973051L511.992368 634.467079 340.562116 800.35169h60.243973c20.254308 0 37.333863 16.264245 37.333864 36.439693v98.69078h147.706103z m218.657233-728.928672c-3.200191-3.864141-6.940954-6.70183-10.410795-10.063557-17.865612 13.163265-37.603514 24.802751-57.314705 35.390345 26.64833 67.710237 43.189856 148.838126 45.84693 236.171791h142.391955a392.56776 392.56776 0 0 0-120.513385-261.498579z m-45.848202-39.254487a421.187591 421.187591 0 0 0-84.264483-46.504521 413.431325 413.431325 0 0 1 33.070334 49.104358c3.688614 6.963849 7.727011 14.212612 11.71453 21.96379a361.631735 361.631735 0 0 0 39.473259-24.563627zM580.530636 94.441243a274.145438 274.145438 0 0 0-45.872369-4.674365v152.968102a432.055011 432.055011 0 0 0 126.939205-25.326788c5.850905-2.289485 11.193036-4.12616 16.512272-6.677664-3.198919-6.988016-6.66876-13.187432-10.138601-19.913428-25.057138-43.403542-54.904386-76.744798-87.437963-96.372042z m-91.20671-4.674365a265.225351 265.225351 0 0 0-45.331796 4.674365c-33.049983 19.627243-62.926486 52.9685-87.437963 96.372041-3.986247 6.725997-7.456088 12.925413-10.92593 19.913429 5.610509 2.551503 11.193036 4.388179 16.783195 6.677663a437.418765 437.418765 0 0 0 126.912494 25.330604V89.766878zM349.6183 120.794483a421.187591 421.187591 0 0 0-84.263211 46.504521 322.612556 322.612556 0 0 0 40.015104 24.563627 237.667587 237.667587 0 0 1 11.738697-21.96379 350.34076 350.34076 0 0 1 32.50941-49.104358z m-119.726057 75.695451c-3.469841 3.361727-6.939682 6.199416-9.843512 10.063557a390.700558 390.700558 0 0 0-121.08194 261.498579h142.394498c2.416678-87.333665 19.194785-168.46537 45.87237-236.171791a479.537651 479.537651 0 0 1-57.341416-35.390345z m466.10728 54.51263c-6.152354 2.337818-12.551464 5.175507-18.951845 6.988016a491.984816 491.984816 0 0 1-142.390683 28.689786v181.371704h202.6372c-2.387424-80.607667-17.054117-155.014647-41.294672-217.04569z m-206.675597 35.681618a492.326967 492.326967 0 0 1-142.388139-28.685971 196.107081 196.107081 0 0 1-18.628773-6.988016c-24.561083 62.031043-39.474531 136.438023-41.6152 217.045691h202.632112V286.684182z" fill="#fff" p-id="808"></path></svg>