<svg class="icon" style="width: 1em;height: 1em;vertical-align: middle;fill: currentColor;overflow: hidden;" viewBox="0 0 1024 1024" version="1.1" xmlns="http://www.w3.org/2000/svg" p-id="6342"><path d="M795.776 64 228.224 64c-56.938667 0-103.253333 45.461333-103.253333 101.333333l0 569.493333c0 56.938667 46.314667 103.253333 103.253333 103.253333l153.045333 0 115.648 115.669333C500.906667 957.76 506.325333 960 512 960s11.093333-2.24 15.082667-6.250667l115.648-115.669333 153.045333 0c55.957333 0 103.253333-47.296 103.253333-103.253333L899.029333 165.333333C899.029333 110.4 851.733333 64 795.776 64zM521.770667 681.216c-17.664 0-32-14.336-32-32s14.336-32 32-32 32 14.336 32 32S539.434667 681.216 521.770667 681.216zM613.546667 455.04l-25.173333 25.322667c-3.797333 4.032-9.002667 9.216-14.634667 14.762667-10.666667 10.538667-42.261333 41.749333-42.261333 51.349333 0 11.754667-9.536 21.290667-21.290667 21.290667-11.754667 0-21.312-9.536-21.312-21.290667 0-25.365333 23.68-50.816 54.656-81.408 5.994667-5.909333 10.517333-10.368 14.208-14.314667l25.642667-25.792c13.162667-13.162667 20.416-30.506667 20.416-48.832 0-51.349333-41.194667-93.141333-91.797333-93.141333s-91.797333 41.792-91.797333 93.141333c0 11.754667-9.557333 21.290667-21.312 21.290667S377.6 387.882667 377.6 376.128c0-74.837333 60.288-135.722667 134.4-135.722667s134.4 60.885333 134.4 135.722667C646.4 405.845333 634.730667 433.856 613.546667 455.04z" fill="#FF6900" p-id="6343"></path></svg>