<svg class="icon" style="width: 1em;height: 1em;vertical-align: middle;fill: #1A5D1A;overflow: hidden;" viewBox="0 0 1024 1024" version="1.1" xmlns="http://www.w3.org/2000/svg" p-id="10654"><path d="M600.275862 74.151724l-24.717241 24.717242s-51.2 51.2-70.62069 128.882758c-70.62069-35.310345-143.006897-31.77931-143.006897-31.77931l-35.310344 1.765517 1.765517 35.310345s3.531034 111.227586 82.97931 181.848276c56.496552 49.434483 112.993103 56.496552 151.834483 58.262069l35.310345 1.765517h3.531034l35.310345-1.765517c37.075862-1.765517 95.337931-8.827586 151.834483-58.262069 79.448276-70.62069 84.744828-181.848276 84.744827-181.848276l1.765518-35.310345-35.310345-1.765517s-74.151724-3.531034-143.006897 31.77931c-19.42069-75.917241-72.386207-128.882759-72.386207-128.882758L600.275862 74.151724zM354.868966 547.310345c-112.993103 0-263.062069 61.793103-263.062069 61.793103l26.482758 65.324138S270.124138 617.931034 354.868966 617.931034c33.544828 0 91.806897 21.186207 139.475862 44.137932 22.951724 12.358621 45.903448 24.717241 61.793103 35.310344 7.062069 5.296552 14.124138 10.593103 19.42069 14.124138l1.765517 1.765518 5.296552 5.296551 1.765517 3.531035c5.296552 8.827586 5.296552 19.42069-1.765517 28.248276-7.062069 10.593103-19.42069 14.124138-30.013793 10.593103L399.006897 688.551724l-30.013794 63.558621 158.896552 75.917241h1.765517c40.606897 14.124138 86.510345 0 111.227587-35.310345 14.124138-19.42069 19.42069-44.137931 15.889655-67.089655l167.724138-28.248276c19.42069-3.531034 37.075862 7.062069 42.372414 24.717242 7.062069 19.42069-1.765517 38.841379-21.186207 47.668965-51.2 22.951724-135.944828 56.496552-210.096552 84.744828-37.075862 14.124138-72.386207 26.482759-100.634483 35.310345-14.124138 5.296552-24.717241 7.062069-33.544827 10.593103h-12.358621c1.765517 0-12.358621-3.531034-30.013793-12.358621-15.889655-8.827586-37.075862-21.186207-58.262069-35.310344s-42.372414-26.482759-63.558621-37.075862S300.137931 794.482759 275.42069 794.482759c-58.262069 0-109.462069 22.951724-109.462069 22.951724l26.482758 65.324138s44.137931-17.655172 82.979311-17.655173c-1.765517 0 14.124138 3.531034 30.013793 12.358621 17.655172 8.827586 37.075862 21.186207 58.262069 35.310345 21.186207 12.358621 42.372414 26.482759 61.793103 37.075862s37.075862 21.186207 63.558621 21.186207c12.358621 0 19.42069-1.765517 30.013793-5.296552 10.593103-3.531034 22.951724-7.062069 38.841379-10.593103 28.248276-8.827586 65.324138-22.951724 102.4-37.075862 75.917241-28.248276 160.662069-63.558621 213.627586-86.510345 51.2-22.951724 75.917241-81.213793 60.027587-134.179311-17.655172-51.2-68.855172-81.213793-120.055173-72.386207l-192.441379 31.779311s-1.765517 0-1.765517-1.765517L617.931034 653.241379l-10.593103-7.062069c-3.531034-1.765517-5.296552-3.531034-8.827586-7.062069-17.655172-12.358621-42.372414-26.482759-68.855173-38.841379-54.731034-26.482759-116.524138-52.965517-174.786206-52.965517z" p-id="10655"></path></svg>