<svg class="icon" style="width: 1.142578125em;height: 1em;vertical-align: middle;fill: currentColor;overflow: hidden;" viewBox="0 0 1170 1024" version="1.1" xmlns="http://www.w3.org/2000/svg" p-id="6071"><path d="M877.714286 512a73.142857 73.142857 0 0 1-73.142857 73.142857h-438.857143A73.142857 73.142857 0 0 1 292.571429 512 73.142857 73.142857 0 0 0 219.428571 438.857143h-146.285714A73.142857 73.142857 0 0 0 0 512V877.714286a146.285714 146.285714 0 0 0 146.285714 146.285714h877.714286a146.285714 146.285714 0 0 0 146.285714-146.285714v-365.714286A73.142857 73.142857 0 0 0 1097.142857 438.857143h-146.285714a73.142857 73.142857 0 0 0-73.142857 73.142857z" fill="#6DD143" p-id="6072"></path><path d="M560.761905 950.857143a48.761905 48.761905 0 0 0 48.761905-48.761905V585.142857h-97.52381v316.952381a48.761905 48.761905 0 0 0 48.761905 48.761905z" fill="#5BAA37" p-id="6073"></path><path d="M402.285714 222.841905h109.714286a24.380952 24.380952 0 0 1 24.380952 24.380952V877.714286a48.761905 48.761905 0 0 0 97.52381 0V247.222857a24.380952 24.380952 0 0 1 24.380952-24.380952h109.714286a24.380952 24.380952 0 0 0 16.579048-41.935238L601.721905 6.826667a24.380952 24.380952 0 0 0-33.645715 0L385.219048 180.906667a24.380952 24.380952 0 0 0 17.066666 41.935238z" fill="#C3FF08" p-id="6074"></path></svg>