<svg class="icon" style="width: 1em;height: 1em;vertical-align: middle;fill: currentColor;overflow: hidden;" viewBox="0 0 1024 1024" version="1.1" xmlns="http://www.w3.org/2000/svg" p-id="10782"><path d="M635.259259 739.555556c0-141.274074-116.622222-256-260.74074-256s-260.740741 114.725926-260.740741 256h521.481481z" fill="#ccc" p-id="10783"></path><path d="M919.703704 730.074074c0-141.274074-116.622222-256-260.740741-256s-260.740741 114.725926-260.740741 256h521.481482z" fill="#ccc" p-id="10784"></path><path d="M384 374.518519m-118.518519 0a118.518519 118.518519 0 1 0 237.037038 0 118.518519 118.518519 0 1 0-237.037038 0Z" fill="#ccc" p-id="10785"></path><path d="M649.481481 365.037037m-118.518518 0a118.518519 118.518519 0 1 0 237.037037 0 118.518519 118.518519 0 1 0-237.037037 0Z" fill="#ccc" p-id="10786"></path><path d="M479.762963 815.407407h364.088889c0-178.251852-144.118519-322.37037-322.370371-322.37037s-322.37037 144.118519-322.37037 322.37037h280.651852z" fill="#516AF0" p-id="10787"></path><path d="M521.481481 350.814815m-151.703703 0a151.703704 151.703704 0 1 0 303.407407 0 151.703704 151.703704 0 1 0-303.407407 0Z" fill="#516AF0" p-id="10788"></path></svg>