<svg class="icon" style="width: 1em;height: 1em;vertical-align: middle;fill: #f06028;overflow: hidden;" viewBox="0 0 1024 1024" version="1.1" xmlns="http://www.w3.org/2000/svg" p-id="26332"><path d="M744.256 864l-28.128-28.112 0.256-0.272A94.672 94.672 0 0 1 688 768c0-44.4 30.32-81.408 71.264-92.368-3.888-1.552-7.696-3.056-12.064-4.88-99.28-41.12-122.8-54.528-122.8-54.528l-0.88-94.304s37.168-28.224 48.784-117.392c23.184 6.72 31.056-27.216 32.32-48.896 1.376-20.944 13.712-86.224-14.672-80.4 5.792-43.584 10.352-82.992 8.304-103.856-7.088-73.216-57.712-149.68-185.504-155.264-108.64 5.584-179.168 82.096-186.288 155.312-2.048 20.864 2.128 60.24 7.936 103.904-28.384-5.904-16.16 59.504-14.912 80.432 1.376 21.68 9.056 55.712 32.32 48.992 11.552 89.184 48.736 117.632 48.736 117.632l-0.928 94.784s-23.52 14.336-122.8 55.456c-99.28 41.168-68.144 8.512-149.024 48.752C-0.016 784.992-0.016 959.888-0.016 959.888h0.032L0 960a48 48 0 0 0 48 48h653.312A94.832 94.832 0 0 1 688 960c0-26.512 10.752-50.512 28.112-67.888L744.256 864z m203.632 0l62.064-62.048a48 48 0 1 0-67.888-67.888L880 796.128l-62.064-62.064a48 48 0 1 0-67.872 67.872L812.112 864l-62.064 62.064a48 48 0 0 0 67.888 67.872L880 931.888l62.064 62.064a48 48 0 0 0 67.872-67.888L947.888 864z" p-id="26333"></path></svg>