<svg class="icon" style="width: 1em;height: 1em;vertical-align: middle;fill: #6b6b6d;overflow: hidden;" viewBox="0 0 1024 1024" version="1.1" xmlns="http://www.w3.org/2000/svg" p-id="16187"><path d="M1024 539.829122v-46.536993H929.716052a416.413016 416.413016 0 0 0-105.918197-255.581167l76.972187-76.972187-32.948191-32.948191-76.599891 76.972186a416.50609 416.50609 0 0 0-255.953463-105.918196V0h-46.536994v98.844574a416.226868 416.226868 0 0 0-251.299763 102.381385l-81.532813-82.463552-33.041265 32.762043 80.974369 81.160516a416.785312 416.785312 0 0 0-109.641157 260.607163H0v46.536993h94.190874A416.50609 416.50609 0 0 0 200.109071 795.503363l-76.972187 76.972187 32.948191 32.948191 76.599891-76.972187a416.50609 416.50609 0 0 0 255.953463 106.011271v89.537175h46.536994v-89.630249A416.599164 416.599164 0 0 0 791.128886 827.986184l76.320669 77.344483 33.041265-32.762043-76.320669-77.623705a416.413016 416.413016 0 0 0 105.545901-255.022723h94.283948z m-134.026541-46.536993H567.844392l227.845119-227.472823a376.949646 376.949646 0 0 1 94.283948 227.565897zM762.74132 232.684966L535.268497 460.437011V138.587166c84.231958 5.025995 164.36866 38.160334 227.472823 94.0978zM488.731503 138.68024v316.451554L265.260862 228.962007a376.57735 376.57735 0 0 1 223.377567-90.467915zM231.754227 261.537902l228.962006 231.754227H134.026541a377.321941 377.321941 0 0 1 97.913833-231.754227zM134.026541 539.829122h322.222141L228.217415 767.488093A376.949646 376.949646 0 0 1 134.026541 539.922196z m127.232139 260.607162l227.565897-227.658971V894.441011a376.949646 376.949646 0 0 1-227.565897-94.004727z m274.102891 94.004727v-325.758953L763.20669 799.784766a376.949646 376.949646 0 0 1-228.031267 94.935467V894.441011z m260.607162-127.790584L572.218869 539.829122h317.75459a376.856572 376.856572 0 0 1-93.725504 226.728231h-0.372296z" p-id="16188"></path></svg>