<svg class="icon" style="width: 1em;height: 1em;vertical-align: middle;fill: currentColor;overflow: hidden;" viewBox="0 0 1024 1024" version="1.1" xmlns="http://www.w3.org/2000/svg" p-id="1651"><path d="M512 0A512 512 0 0 1 1024 512 512 512 0 0 1 512 1024 512 512 0 0 1 0 512 512 512 0 0 1 512 0z" fill="#FE4B48" p-id="1652"></path><path d="M500.032935 745.22178c13.598938 0 25.430013 0 36.173174-1.495884s20.398406-2.17583 29.101726-3.535723l58.339443-242.333068h156.79575l-84.449403 348.812749a510.096149 510.096149 0 0 1-81.593625 21.622311 713.536255 713.536255 0 0 1-135.989376 10.607171 345.277025 345.277025 0 0 1-124.1583-20.670385 240.837185 240.837185 0 0 1-90.024967-58.74741 246.004781 246.004781 0 0 1-54.39575-92.472776 385.801859 385.801859 0 0 1-18.086587-122.390438 462.363878 462.363878 0 0 1 27.197875-155.843825 411.367862 411.367862 0 0 1 217.718991-237.43745 426.870651 426.870651 0 0 1 184.945551-38.213015 402.392563 402.392563 0 0 1 101.992032 13.598938 328.9583 328.9583 0 0 1 97.096414 42.156706l-56.299601 121.574502A294.824967 294.824967 0 0 0 611.952191 286.801594a248.044622 248.044622 0 0 0-108.7915 23.118194 243.692961 243.692961 0 0 0-81.593626 62.827091 275.242497 275.242497 0 0 0-50.18008 91.928818 353.572377 353.572377 0 0 0-17.134661 110.695352q0 88.257105 36.717132 129.053918t109.063479 40.796813z" fill="#ffffff" p-id="1653"></path></svg>